<?xml version="1.0" standalone="no"?>
<!DOCTYPE svg PUBLIC "-//W3C//DTD SVG 20010904//EN"
 "http://www.w3.org/TR/2001/REC-SVG-20010904/DTD/svg10.dtd">
<svg version="1.0" xmlns="http://www.w3.org/2000/svg"
 width="260.000000pt" height="260.000000pt" viewBox="0 0 260.000000 260.000000"
 preserveAspectRatio="xMidYMid meet">
<metadata>
Created by potrace 1.11, written by Peter Selinger 2001-2013
</metadata>
<g transform="translate(0.000000,260.000000) scale(0.100000,-0.100000)"
fill="#000000" stroke="none">
<path d="M270 2415 l0 -185 406 -406 c223 -223 404 -407 402 -409 -1 -3 -61
-62 -131 -133 l-128 -129 51 -49 c34 -32 49 -53 44 -63 -11 -29 -13 -235 -3
-291 57 -306 276 -544 574 -625 74 -20 246 -28 317 -15 41 8 55 7 63 -2 6 -7
29 -30 51 -50 l39 -37 293 293 293 293 -50 48 c-37 35 -48 52 -44 68 2 12 7
68 9 125 9 226 -68 422 -227 581 -90 90 -189 151 -313 193 -81 27 -105 31
-216 32 -69 0 -140 -2 -158 -6 -31 -7 -38 -4 -86 42 l-53 50 -66 -68 c-36 -37
-94 -95 -129 -130 l-64 -63 -301 303 c-166 167 -344 347 -397 400 l-96 97 0
161 0 160 -40 0 -40 0 0 -185z"/>
</g>
</svg>
