<svg xmlns="http://www.w3.org/2000/svg" xmlns:xlink="http://www.w3.org/1999/xlink" version="1.1" x="0px" y="0px" viewBox="0 0 20 25" enable-background="new 0 0 20 20" xml:space="preserve">
    <g>
        <path fill="#FFF" d="M16,0H4C2.9,0,2,0.9,2,2v16c0,1.1,0.9,2,2,2h12c1.1,0,2-0.9,2-2V2C18,0.9,17.1,0,16,0z M9.9,2c1.1,0,2,0.9,2,2s-0.9,2-2,2   s-2-0.9-2-2S8.8,2,9.9,2z M9.9,7c2.2,0,4,0.8,4,3h-8C5.9,7.8,7.7,7,9.9,7z M12,18H5c-0.6,0-1-0.4-1-1c0-0.6,0.4-1,1-1h7   c0.6,0,1,0.4,1,1C13,17.6,12.6,18,12,18z M15,14H5c-0.6,0-1-0.4-1-1c0-0.6,0.4-1,1-1h10c0.6,0,1,0.4,1,1C16,13.6,15.6,14,15,14z"/>
    </g>
    <text x="0" y="35" fill="#FFF" font-size="5px" font-weight="bold" font-family="'Helvetica Neue', Helvetica, Arial-Unicode, Arial, Sans-serif">Created by ProSymbols</text><text x="0" y="40" fill="#FFF" font-size="5px" font-weight="bold" font-family="'Helvetica Neue', Helvetica, Arial-Unicode, Arial, Sans-serif">from the Noun Project</text>
</svg>