<svg xmlns="http://www.w3.org/2000/svg" width="914.667" height="782.667" viewBox="0 0 914.667 782.667">
  <path fill="#fff" d="M827.1 76.93h.067c-8.198-4.73-17.327-6.13-27.39-4.333h-.066c-10.06 1.8-18.12 6.4-24.12 13.663h-.06v.067c-4.99 6.064-7.53 12.46-7.53 19.325-21.79 3-42.18 8.663-61.31 17.06-4.59-19.26-15.06-33.387-31.25-42.25-.46-.267-.86-.534-1.33-.734l22.33-18.125c4.73 3.332 10.33 5.13 16.8 5.397 5.33.2 9.8-.4 13.4-1.8 3.93-1.4 7.73-3.53 11.33-6.396 7.6-6.197 11.93-13.795 13.06-22.857 1.13-9.398-1.26-17.594-7.26-24.59-6-6.932-13.79-10.73-23.39-11.33h-.13C710.9-.44 702.5 2.36 695.1 8.424l-.064.067c-7.462 6-11.794 13.6-12.994 22.73v.07c-1 7.87.6 14.87 4.665 21.06L660.23 73.8c-11.26-3.733-23.723-5.465-37.517-5.13-19.592.332-40.518 4.796-62.842 13.327-6.99 2.598-13.92 5.53-20.79 8.796-2.53-9.795-6.06-17.326-10.59-22.457-7.13-8.33-14.79-10.462-22.92-6.397-7.06 2.8-12.79 10.33-17.19 22.52v.06c-3.93 10.93-6.13 24.65-6.53 41.25-18.46 13.99-36.45 30.38-53.98 49.18-36.92 1.2-71.57 7.79-104.02 19.86h495.66c-1.6-1.07-3.26-2.14-5.06-3.14-11-6.27-25.52-10.73-43.58-13.46-19.19-2.94-40.51-3.74-63.91-2.47 1.2-7.27 1.94-14.13 2.27-20.6.34-6.73.27-12.99-.26-18.86 18.93-8.73 39.32-14.53 61.11-17.46 2 4.06 5.67 7.99 11.07 11.92.4.27.87.53 1.33.87l1.53.86c8.13 4.73 17.26 6.13 27.39 4.33 10.07-1.8 18.13-6.4 24.19-13.66 6.47-7.8 8.8-16.2 7.13-25.26-1.6-9.06-6.79-16.06-15.59-20.99zM696.485 53.804l-.466-.533.46.47v.07"/>
  <path fill="#fff" d="M893.607 207.61c-6.998-1.13-13.262-.066-18.792 3.2l-.067.066-.067.067c-3.26 1.933-5.79 4.332-7.59 7.064-10.19-1.4-20.39-2.067-30.59-2-2.46-8.13-8.13-15.194-16.99-21.19H323.84c-20.26 7.463-39.584 17.06-58.044 28.722-.4-8.07.735-15.8 3.335-23.26 3.8-.14 7.53-1.2 11.26-3.27l.47-.27.67-.4c.73-.47 1.53-1 2.27-1.53h-48.25c-2.46 2.06-4.93 4-7.53 5.66-.13.06-.26.2-.33.26-9.59 6-20.46 9.26-32.65 9.73 3.93-4.87 7.53-10.13 10.93-15.66H3.17c1.4 5.66 3.6 10.93 6.46 15.72 5.393 9.39 15.66 17.26 30.783 23.65 12.73 5.46 27.725 9.26 44.85 11.46 4.33.59 8.665.99 12.93 1.33-10.863 6.2-20.326 13.26-28.32 21.19-12.19 12.06-18.06 23.65-17.59 34.78-1.4.6-2.73 1.2-4.06 1.87l-13.39 6.47 13.86 5.66c10.07 3.93 18.996 9.26 26.93 15.86 0 2.06.465 4.13 1.4 6.33V339c1.664 4.2 4.6 7.464 8.93 9.73H86c4.332 2.2 8.664 2.733 13.13 1.6h.065c3.333-.866 6-2.4 8.065-4.73 3.198-3.533 4.464-7.93 3.798-13.196l-.2-.933-.6-1.8c-.066-.06-.066-.13-.066-.2l-.2-.6c-.067-.06-.067-.06-.067-.13-.066-.06-.066-.2-.133-.26-1.333-3-3.266-5.47-5.798-7.4l.066.07c-1-.8-2-1.46-3.065-1.99h-.066c-2.74-1.4-5.4-2.06-8.07-2.13-1.13-2.06-2-3.99-2.47-5.79-.47-2.07-.54-3.93-.07-5.6 3-8.87 16.39-16.26 40.18-22.06.06.2.13.33.26.53l6.86 15.6 13.19 24.79c-6.2 3.74-12.4 7.6-18.53 11.53-.13.07-.27.2-.4.27-25.26 16.26-50.18 34.39-74.77 54.38h799.42c0-.6 0-1.13-.07-1.66l-.07-2.4-1.67-1.79c-29.52-32.52-60.84-59.78-93.83-81.77l-8.4-5.66-2.2 11.73c-15.93-7.33-31.79-14.19-47.72-20.59 32.85-6.99 60.04-14.52 81.57-22.52 31.45-11.79 49.04-23.99 52.84-36.65 8.93-.07 17.86.47 26.79 1.6.33 4.47 2.26 8.6 5.73 12.46l.06.07c4.2 4.87 9.8 7.8 16.86 8.93 7 1.13 13.26 0 18.86-3.26h-.07c6.27-3.66 9.86-8.66 10.73-15.06v.07c1.14-6.33-.73-12.19-5.53-17.59-4.2-4.86-9.86-7.79-16.86-8.93zm-646.275 26.923l1.065.734c-6.197 4.464-12.194 9.13-18.125 14.128l1.067 1.398-1.07-1.398-1.34-1.734-.94-1.2.93 1.2c1.73-.93 3.4-1.93 5.06-2.93 4.86-3.06 9.33-6.46 13.33-10.19"/>
  <path fill="#fff" d="M381.88 62.203c0-5.398-1.935-9.996-5.733-13.795-3.8-3.8-8.396-5.732-13.795-5.732-5.397 0-9.995 1.867-13.793 5.665v.07h-.07c-3.8 3.8-5.67 8.4-5.67 13.8 0 .47 0 .94.06 1.4-1.73 1.2-3.4 2.34-5.07 3.47-3.2-2.8-6.67-5.06-10.47-6.8-1.87-.86-4.47-1.8-7.8-2.66-9.67-2.33-18.26-.86-25.79 4.47h.06c-7.8 5.2-12.33 12.86-13.6 22.99-.87.27-1.8.6-2.67.94l-2 .8c-.87.33-2 .87-3.47 1.73l-.13.07c-8.2 4.34-15.33 9-21.53 14l-.74.6c-7.4 6.06-13.39 12.73-17.93 19.86-2.47 3.86-4.4 7.6-5.73 11.2.33-8.19-.4-16.19-2.2-23.85-3.8-16.86-13.93-30.05-30.32-39.58-10.86-6.47-27.92-12.47-51.04-18h-.07c-12.59-2.86-22.06-5.13-28.45-6.66-11.13-2.73-20.59-5.33-28.39-7.86C65 31.55 48.61 22.82 36.48 12.16L20.956-1.04l4.598 19.727c3.6 15.26 3.8 32.186.6 50.913v.067c-1.866 10.86-6.198 27.52-13.062 49.845-6.464 21.192-10.262 36.92-11.395 47.18v.068c-1.133 10.33-.6 19.66 1.466 28.056h202.785c2.667-4.532 5.2-9.263 7.597-14.195 4.8-10.19 8.264-20.05 10.33-29.65.533 3.47 1.798 6.73 3.865 9.86l.267.54.4.47c4.73 5.67 11.06 8.8 19.125 9.4-1.2 3.87-1.467 7.6-.733 11.27-3.54 4.67-7.27 8.8-11.27 12.33h48.25c3.73-2.86 6.53-6.53 8.39-10.93v-.06l.06-.2c.13-.33.26-.73.4-1.06 2.4-6.46 2.2-12.59-.54-18.39-.34-.93-1.14-2.2-2.27-3.86l-.4-.47c-.27-.33-.53-.6-.73-.8-.07-.06-.07-.06-.07-.13 7.39-4.66 14.66-10.59 21.85-17.79h.07c2.06-2.06 3.93-4.2 5.6-6.39 8.93 1.73 16.92.13 24.06-4.73 8.19-5.53 12.73-13.8 13.59-24.66.2-2.33.2-4.67.06-6.93-.2-2.87-.74-5.66-1.53-8.46v-.07c-.47-1.73-1.07-3.4-1.8-5.06 1.66-1.4 3.4-2.73 5.26-4.13 2.07.73 4.2 1.07 6.53 1.07 5.4 0 9.93-1.87 13.72-5.67l.13-.13c3.8-3.8 5.67-8.33 5.67-13.73zm-77.437 19.792c.6-.867 1.398-1.6 2.265-2.2 2.865-1.866 6.197-2.266 9.93-1.132-4.466 1.732-8.53 2.865-12.195 3.332zm23.324 28.588c-.267.133-.534.266-.734.4.534-1 1.134-2.066 1.8-3.066l.067-.2.133-.2c.132-.2.266-.466.4-.666l.066-.06c.8-1.13 1.66-2.26 2.59-3.4-.6 3.07-2 5.47-4.33 7.2zm-.667-1l.067-.267c-.067.133-.067.267-.067.333v-.07M31.552 412.26l-2.066 1.8-.133 2.733c-3.8 53.58 3.665 107.158 22.39 160.67.4 1.133 1.067 2.132 1.933 2.865.667.6 1.466 1 2.4 1.333l.332.07c.067.07.134.07.267.07l18.525 4.66h623.352c4.065-6.6 7.796-13.33 11.26-20.19 4-7.53 7.465-15.26 10.33-23.19l12.33 2.07 7.13-8.46 4.798 49.78h17.327l23.524-1.73h.54l.33-.06c.34-.07.6-.13.94-.2l52.98-15.86-13.59-85.97 20.19-16.13.07-.06.14-.13c1.07-.86 1.8-2 2.13-3.39 6-23.26 8.53-47.31 7.6-72.24H57.14c-8.595 6.93-17.125 14.13-25.588 21.59M175.76 616.85c-.067 0-.067 0-.133.064l-.067.067c-4.664 2.6-7.463 6.8-8.463 12.47v-.07c-1 5.13-.133 10.07 2.666 14.8v.07c.866 1.47 1.8 2.8 2.932 3.93l-4.73 12.93c-6.265-3.4-12.53-6.33-18.793-8.86h.067c-2.27-.93-4.47-1.8-6.67-2.6l-8-2.93-4.67 45.85c-10.8 13-16.66 25.39-17.6 37.19v.07c-1.4 14.46 4.2 27.26 16.92 38.45 13.19 11.67 27.59 16.06 43.18 13.2 14.59-2.53 26.92-10.99 36.98-25.45l47.51-13.39-6-7.79c-4.2-5.39-8.4-10.53-12.73-15.52l17.72-8.53c1 .6 2.13 1.2 3.33 1.67 4.46 1.8 9.06 1.93 13.66.54h-.07c4.6-1.4 7.93-3.93 9.99-7.53 41.58 20.26 88.1 30.39 139.54 30.46 52.24 0 100.09-10.46 143.54-31.45l10.86-5.47c22.59-12.06 43.98-27.05 64.17-44.98 23.45-20.86 42.65-43.32 57.57-67.51H75.2l67.04 16.93 14.4-15.92c5.596 10.06 11.994 19.86 19.123 29.39zm26.324 30.252c2.265 2.266 4.597 4.532 6.93 6.73 2.998 2.867 5.998 5.6 9.13 8.33l-16.594 21.59-.062-.065c-.067-.067-.2-.133-.267-.2-.33-.267-.6-.467-.8-.666h-.06c-4.86-3.93-11.79-8.86-20.72-14.86l4.87-13.33c4.2.74 8.13.07 11.8-2.13h-.06c2.47-1.4 4.4-3.2 5.87-5.4zm26.256 23.59c7.263 5.865 14.793 11.33 22.524 16.46-.6.734-1.067 1.534-1.533 2.4v.067c-1.73 3.33-2.19 6.73-1.33 10.13l-19.12 9.26-.4-.4c-5.46-5.73-11.06-11.13-16.72-16.2l16.6-21.73m516.05-84.23l.14 1.26 17.2-1.27z"/>
  <path fill="none" stroke="#fff" stroke-width=".067" stroke-miterlimit="10" d="M228.94 247.66l-.933-1.2m3.333 4.333l-1.068-1.398"/>
  <path fill="none" stroke="#000" stroke-width="6.664" stroke-miterlimit="10" d="M878.812 226.67c-18.992-3.73-37.984-4.865-56.976-3.398" stroke-linecap="round" stroke-linejoin="round"/>
  <path fill="#00746b" d="M781.852 259.724c36.052-13.463 52.312-26.924 48.647-40.45-2.34-8.598-8.73-15.862-19.33-21.793-10.4-5.86-24.19-10.06-41.32-12.66-36.45-5.53-80.64-3.4-132.62 6.47l-13.98 104.62c69.24-10.59 122.15-22.66 158.6-36.18"/>
  <path fill="#2a5953" d="M826.167 221.005c-2.2-7.13-8.396-12.86-18.592-17.326-9.996-4.34-23.258-7.14-39.784-8.27-35.12-2.6-77.63 1.86-127.68 13.26l-13.46 89.56c66.71-13.06 117.55-26.39 152.67-40.05 34.72-13.53 50.38-25.93 46.85-37.19"/>
  <path fill="none" stroke="#000" stroke-width="6.664" stroke-miterlimit="10" d="M623.248 295.91c69.24-10.597 122.152-22.66 158.604-36.186 36.052-13.463 52.312-26.924 48.647-40.45-2.34-8.598-8.73-15.862-19.33-21.793-10.4-5.86-24.19-10.06-41.32-12.66-36.45-5.53-80.64-3.4-132.62 6.47" stroke-linecap="round" stroke-linejoin="round"/>
  <path fill="#f26d7d" d="M905.47 220.94c-3.267-3.667-7.53-5.865-12.93-6.732-5.397-.867-10.196-.067-14.46 2.4-4.265 2.532-6.73 5.997-7.464 10.328-.667 4.332.667 8.397 3.932 12.063 3.265 3.66 7.53 5.93 12.928 6.79 5.397.86 10.196 0 14.46-2.47 4.332-2.47 6.797-5.93 7.464-10.27.733-4.33-.6-8.4-3.93-12.13"/>
  <path fill="#b25963" d="M904.536 227.536c-2.133-2.4-5-3.865-8.53-4.464-3.533-.533-6.665 0-9.53 1.6-2.8 1.664-4.464 3.93-4.93 6.796-.467 2.865.4 5.53 2.598 7.996 2.132 2.4 4.997 3.865 8.53 4.465 3.53.53 6.73 0 9.595-1.67s4.46-3.87 4.86-6.73c.46-2.87-.4-5.54-2.6-8"/>
  <path fill="none" stroke="#000" stroke-width="6.664" stroke-miterlimit="10" d="M892.54 214.208c-5.397-.867-10.196-.067-14.46 2.4-4.265 2.532-6.73 5.997-7.464 10.328-.667 4.332.667 8.397 3.932 12.063 3.265 3.66 7.53 5.93 12.928 6.79 5.397.86 10.196 0 14.46-2.47 4.332-2.47 6.797-5.93 7.464-10.27.733-4.33-.6-8.4-3.93-12.13-3.267-3.67-7.53-5.87-12.93-6.74z" stroke-linecap="round" stroke-linejoin="round"/>
  <path fill="#ffd064" d="M791.448 216.607c0-5.53-2.667-10.195-7.93-14.127-5.266-3.932-11.597-5.865-19.06-5.865-7.463 0-13.86 1.933-19.125 5.865-5.265 3.932-7.864 8.596-7.864 14.127 0 5.532 2.59 10.196 7.86 14.128 5.26 3.932 11.66 5.864 19.12 5.864 7.46 0 13.79-1.94 19.05-5.87 5.26-3.93 7.93-8.6 7.93-14.13"/>
  <path fill="none" stroke="#000" stroke-width="3.998" stroke-miterlimit="10" d="M783.517 202.48c-5.265-3.932-11.596-5.865-19.058-5.865-7.47 0-13.87 1.933-19.13 5.865-5.27 3.932-7.87 8.596-7.87 14.127 0 5.532 2.6 10.196 7.86 14.128 5.26 3.932 11.66 5.864 19.12 5.864 7.46 0 13.79-1.94 19.05-5.87 5.26-3.93 7.93-8.6 7.93-14.13 0-5.53-2.67-10.2-7.93-14.13z" stroke-linecap="round" stroke-linejoin="round"/>
  <path fill="#2f211e" d="M769.456 215.14c0-1.932-1-3.53-2.932-4.93s-4.33-2.066-7.064-2.066c-2.8 0-5.197.667-7.13 2.065-1.933 1.4-2.866 2.99-2.866 4.93 0 1.93.933 3.53 2.865 4.93 1.93 1.4 4.33 2.06 7.13 2.06 2.73 0 5.13-.67 7.06-2.07 1.93-1.4 2.93-3 2.93-4.93"/>
  <path fill="none" stroke="#000" stroke-width="3.998" stroke-miterlimit="10" d="M766.524 210.21c-1.932-1.4-4.33-2.066-7.064-2.066-2.8 0-5.197.667-7.13 2.065-1.933 1.4-2.866 2.99-2.866 4.93 0 1.93.933 3.53 2.865 4.93 1.93 1.4 4.33 2.06 7.13 2.06 2.73 0 5.13-.67 7.06-2.07 1.93-1.4 2.93-3 2.93-4.93 0-1.94-1-3.54-2.93-4.94z" stroke-linecap="round" stroke-linejoin="round"/>
  <path fill="none" stroke="#000" stroke-width="6.664" stroke-miterlimit="10" d="M783.85 110.65c-29.787 2.33-57.177 9.53-82.1 21.658m-2.533-81.635l-41.782 33.92" stroke-linecap="round" stroke-linejoin="round"/>
  <path fill="#7cc576" d="M622.848 75.33c-18.86.334-39.117 4.665-60.643 12.862-9.396 3.532-18.725 7.663-27.854 12.395-2.19-12.728-5.86-21.99-10.93-27.923-4.73-5.53-9.79-7.13-15.12-4.664-5.53 2.465-10.06 8.73-13.66 18.725-3.93 11.13-5.99 25.258-6.19 42.45-19.72 14.66-38.92 32.12-57.57 52.313 48.98 57.576 126.42 92.496 232.38 104.824 5.67-12.728 11.13-25.856 16.33-39.517 13.93 1.066 25.59-.134 34.98-3.532 8.47-3.066 13.53-7.263 15.2-12.595 1.67-5.264-.53-10.13-6.6-14.46-6.66-4.865-16.72-7.93-30.18-9.264 5.6-19.792 8.8-37.117 9.6-52.112 1.8-33.453-8.33-56.31-30.39-68.572-13.79-7.664-30.25-11.33-49.31-10.93"/>
  <path fill="#6f9b64" d="M659.233 98.588c-25.256-8.997-54.31-5.73-87.03 9.796-32.655 15.393-59.776 39.984-81.435 73.637 46.515 19.06 104.025 50.58 172.464 94.57 3.865-6.33 6.864-11.59 9.063-15.92 2.733-5.26 5.065-10.66 6.997-16.12 10.596.74 19.992-.4 28.19-3.53 8.73-3.33 12.66-7.79 11.727-13.32-1.14-6.73-12.6-10.33-34.32-10.8 2.53-12.93 4.19-24.32 4.99-34.25 1.26-15.19 1-28.45-.74-39.72-1.53-9.53-4-17.26-7.4-23.19-3-5.13-6.6-9.66-10.73-13.53-4-3.66-7.93-6.19-11.8-7.59"/>
  <path fill="none" stroke="#000" stroke-width="6.664" stroke-miterlimit="10" d="M663.232 286.312c5.664-12.728 11.13-25.856 16.327-39.517 13.92 1.066 25.59-.134 34.98-3.532 8.46-3.066 13.53-7.263 15.19-12.595 1.66-5.264-.54-10.13-6.6-14.46-6.67-4.865-16.73-7.93-30.19-9.264 5.6-19.792 8.8-37.117 9.6-52.112 1.8-33.453-8.33-56.31-30.39-68.572-13.8-7.664-30.26-11.33-49.32-10.93-18.86.334-39.12 4.665-60.65 12.862-9.4 3.532-18.73 7.664-27.86 12.395-2.2-12.728-5.87-21.99-10.93-27.923-4.73-5.53-9.8-7.13-15.13-4.664-5.53 2.465-10.06 8.73-13.66 18.727-3.93 11.128-6 25.256-6.2 42.45-19.73 14.66-38.92 32.12-57.58 52.31" stroke-linecap="round"/>
  <path fill="none" stroke="#7cc576" stroke-width="10.662" stroke-miterlimit="10" d="M613.985 100.32c-13.194-.8-25.257 2.6-36.252 10.196-10.996 7.73-17.726 17.46-20.125 29.123-2.332 11.72.267 21.99 7.93 30.78 7.597 8.93 17.993 13.79 31.187 14.59 13.195.86 25.323-2.6 36.32-10.33 10.995-7.67 17.66-17.33 19.99-29.06 2.4-11.67-.2-21.99-7.795-30.86-7.664-8.8-18.06-13.6-31.255-14.46z" stroke-linecap="round" stroke-linejoin="round"/>
  <path fill="#fff356" d="M653.37 144.97c2.4-11.663-.2-21.99-7.798-30.855-7.663-8.796-18.06-13.595-31.253-14.46-13.2-.8-25.26 2.598-36.26 10.194-11 7.73-17.73 17.46-20.13 29.12-2.34 11.73.26 21.99 7.93 30.79 7.59 8.93 17.99 13.79 31.19 14.59 13.19.86 25.32-2.6 36.31-10.33 10.99-7.67 17.66-17.33 19.99-29.06"/>
  <path fill="#cbbb4e" d="M586.263 121.98c-9.396 6.463-15.127 14.592-17.327 24.39-2.2 9.794-.133 18.39 6.065 25.79 6.27 7.46 14.93 11.527 25.93 12.193 11.06.734 21.26-2.198 30.59-8.662 9.33-6.39 15.06-14.52 17.2-24.32 2.2-9.79.2-18.39-6-25.85-6.26-7.33-14.92-11.33-25.99-12.06-11.06-.66-21.19 2.2-30.45 8.53"/>
  <path fill="none" stroke="#000" stroke-width="3.998" stroke-miterlimit="10" d="M614.32 99.655c-13.196-.8-25.26 2.598-36.253 10.194-10.996 7.73-17.727 17.46-20.126 29.12-2.33 11.73.27 21.99 7.94 30.79 7.6 8.93 17.99 13.79 31.19 14.59 13.2.86 25.32-2.6 36.32-10.33 11-7.67 17.66-17.33 20-29.06 2.4-11.67-.2-21.99-7.8-30.86-7.66-8.8-18.06-13.6-31.25-14.46z" stroke-linecap="round" stroke-linejoin="round"/>
  <path fill="#fff356" d="M587.863 110.383c-2.932 2.066-4.732 4.598-5.4 7.597-.732 3.065-.066 5.73 1.868 8.063 1.94 2.333 4.67 3.533 8.07 3.732 3.4.2 6.6-.666 9.53-2.666 2.87-2 4.67-4.53 5.33-7.6.67-3 .07-5.67-1.86-8-1.93-2.34-4.66-3.6-8.06-3.8-3.46-.2-6.6.73-9.46 2.66"/>
  <path fill="#6f4d4a" d="M594.993 129.975c-5.865-.266-11.262 1-16.126 3.732-4.866 2.865-7.864 6.398-8.93 10.73-1.068 4.33.132 8.063 3.53 11.262 3.4 3.26 7.998 5.06 13.862 5.39 5.79.26 11.19-1 16.12-3.8 4.86-2.8 7.79-6.33 8.86-10.66 1.06-4.33-.07-8.07-3.47-11.33-3.4-3.27-8.07-5-13.86-5.33"/>
  <path fill="none" stroke="#000" stroke-width="3.998" stroke-miterlimit="10" d="M578.867 133.707c-4.866 2.865-7.864 6.398-8.93 10.73-1.068 4.33.132 8.063 3.53 11.262 3.4 3.26 7.998 5.06 13.862 5.39 5.79.26 11.19-1 16.12-3.8 4.86-2.8 7.79-6.33 8.86-10.66 1.06-4.33-.07-8.07-3.47-11.33-3.4-3.27-8.07-5-13.86-5.33-5.87-.27-11.26 1-16.13 3.73z" stroke-linecap="round" stroke-linejoin="round"/>
  <path fill="#f26d7d" d="M719.876 6.69c-7.664-.333-14.528 1.934-20.66 6.93-6.063 4.867-9.595 11.064-10.595 18.46-.93 7.4 1 13.863 5.74 19.393 4.8 5.598 11.06 8.596 18.79 8.93 7.67.4 14.53-1.866 20.59-6.798 6.2-4.997 9.73-11.128 10.67-18.525.94-7.397-1-13.86-5.73-19.392-4.8-5.532-11.06-8.53-18.79-8.997"/>
  <path fill="#c25e69" d="M736.736 25.95c-3.465-3.93-7.996-6.13-13.528-6.465-5.53-.266-10.463 1.4-14.86 5-4.4 3.53-6.93 7.93-7.664 13.26-.667 5.33.733 9.996 4.132 13.995 3.465 4 7.996 6.13 13.528 6.397 5.53.334 10.46-1.332 14.86-4.865 4.465-3.6 6.997-8.063 7.664-13.328.667-5.33-.733-9.996-4.132-13.995"/>
  <path fill="none" stroke="#000" stroke-width="6.664" stroke-miterlimit="10" d="M699.217 13.62c-6.064 4.867-9.596 11.064-10.596 18.46-.93 7.4 1 13.863 5.74 19.393 4.8 5.598 11.06 8.596 18.79 8.93 7.67.4 14.53-1.866 20.59-6.798 6.2-4.997 9.73-11.128 10.67-18.525.94-7.397-1-13.86-5.73-19.392-4.8-5.532-11.06-8.53-18.79-8.997-7.66-.33-14.53 1.94-20.66 6.93z" stroke-linecap="round" stroke-linejoin="round"/>
  <path fill="#f26d7d" d="M800.91 79.128c-8.462 1.533-15.193 5.332-20.258 11.396-5 6.064-6.864 12.66-5.597 19.725 1.265 7.13 5.33 12.59 12.194 16.46 6.86 3.93 14.46 5.06 22.92 3.53 8.46-1.53 15.19-5.27 20.26-11.33 5.06-6.07 6.93-12.66 5.66-19.79-1.27-7.07-5.4-12.53-12.26-16.4-6.87-3.93-14.47-5.13-22.93-3.6"/>
  <path fill="#c25e69" d="M809.04 92.99c-5.93-.2-11.26 1.333-15.993 4.598-4.73 3.265-7.463 7.33-8.196 12.26-.73 4.867.74 9.2 4.4 12.864 3.73 3.664 8.6 5.664 14.6 5.93 5.93.267 11.2-1.2 15.93-4.465 4.8-3.332 7.53-7.462 8.27-12.328.74-4.87-.8-9.2-4.46-12.87s-8.53-5.67-14.53-6"/>
  <path fill="none" stroke="#000" stroke-width="6.664" stroke-miterlimit="10" d="M780.652 90.524c-5 6.064-6.864 12.66-5.597 19.725 1.265 7.13 5.33 12.59 12.194 16.46 6.86 3.93 14.46 5.06 22.92 3.53 8.46-1.53 15.19-5.27 20.26-11.33 5.06-6.07 6.93-12.66 5.66-19.79-1.27-7.07-5.4-12.53-12.26-16.4-6.87-3.93-14.47-5.13-22.93-3.6-8.47 1.53-15.2 5.33-20.26 11.39z" stroke-linecap="round" stroke-linejoin="round"/>
  <path fill="#6f9b64" d="M519.356 91.324c-2.4-2.865-4.997-3.4-7.73-1.6-6.065 4.065-10.195 15.795-12.395 35.253l26.33-17.726c-1.53-7.59-3.6-12.92-6.2-15.92"/>
  <path fill="#c6996d" d="M649.305 261.523c-56.578-53.446-126.217-80.168-208.784-80.168-82.56 0-154 26.722-214.18 80.168-60.11 53.512-91.43 118.086-93.89 193.722-2.46 75.636 24.53 140.21 81.1 193.723 56.65 53.51 126.29 80.234 208.85 80.234 82.57 0 153.94-26.723 214.12-80.234 60.18-53.512 91.57-118.087 94.03-193.723 2.47-75.636-24.59-140.21-81.23-193.722"/>
  <path fill="#8f6c5e" d="M490.568 182.62c23.257 11.53 43.183 23.06 59.776 34.653 14.86 10.396 28.39 21.792 40.584 34.254-53.445-26.79-106.89-38.186-160.27-34.187-47.914 3.6-92.23 19.127-132.946 46.515-37.852 25.457-67.773 57.71-89.764 96.76-21.86 38.785-32.12 77.637-30.855 116.62.067 1.934 0 4.466-.133 7.732-.2 3.665-.267 6.264-.267 7.73l-27.388 9.196-10.662 37.984 33.318 59.976 20.26-22.057c6.47 12.86 13.73 24.79 21.8 35.785 7.87 10.67 17.6 21.93 29.12 33.86 47.92 49.18 107.63 73.77 179.13 73.77s133.95-24.59 187.19-73.77c15.93-14.73 29.39-29.32 40.32-43.91 10.86-14.33 20.46-30.32 28.92-47.84l27.19 8.2 15.33-42.65-30.52-7.66c2.27-11.79 3.73-23.86 4.4-36.32 2.07-38.58-.26-71.24-6.99-97.96-6.26-24.72-16.73-46.78-31.32-66.04l9.07-35.98c-47.91-52.64-106.29-84.16-175.26-94.63"/>
  <path fill="none" stroke="#000" stroke-width="6.664" stroke-miterlimit="10" d="M440.52 181.355c-82.565 0-154.004 26.722-214.18 80.168-60.11 53.512-91.43 118.086-93.895 193.722-2.466 75.636 24.523 140.21 81.1 193.723 56.644 53.51 126.283 80.234 208.85 80.234 82.566 0 153.938-26.723 214.114-80.234 60.17-53.512 91.56-118.087 94.03-193.723 2.46-75.635-24.6-140.21-81.24-193.722-56.58-53.446-126.22-80.168-208.79-80.168z" stroke-linecap="round" stroke-linejoin="round"/>
  <path fill="#9ddff9" d="M340.295 79.995c-5.398-7.93-12.262-13.062-20.592-15.46-8.33-2.466-15.66-1.466-22.124 2.998-6.47 4.4-10.07 10.93-10.87 19.526-.73 8.66 1.53 16.92 6.93 24.85 5.4 7.86 12.19 12.99 20.52 15.39 8.39 2.46 15.79 1.53 22.25-2.87 6.46-4.47 9.99-11 10.73-19.66.8-8.67-1.47-16.93-6.87-24.79zm-44.916 8.33c.46-6.264 3-10.93 7.59-14.06 4.6-3.133 9.86-3.733 15.79-1.933 6.06 1.865 11.06 5.664 14.99 11.46 3.93 5.8 5.66 11.797 5.19 18.128-.4 6.33-2.87 10.995-7.46 14.128-4.6 3.132-9.87 3.73-15.93 1.865-6.07-1.865-11-5.664-14.93-11.462-3.93-5.79-5.73-11.79-5.27-18.12"/>
  <path fill="#86adc0" d="M346.625 91.057l-4.132-8.662-6.197 5.864 1.867 10.46 8.462-7.67"/>
  <path fill="none" stroke="#000" stroke-width="3.998" stroke-miterlimit="10" d="M319.703 64.535c-8.33-2.466-15.66-1.466-22.124 2.998-6.47 4.4-10.07 10.93-10.87 19.526-.73 8.66 1.53 16.92 6.93 24.85 5.4 7.86 12.19 12.99 20.52 15.39 8.39 2.46 15.79 1.53 22.25-2.87 6.46-4.47 9.99-11 10.73-19.66.8-8.67-1.47-16.93-6.87-24.79-5.4-7.93-12.27-13.06-20.6-15.46z" stroke-linecap="round" stroke-linejoin="round"/>
  <path fill="none" stroke="#000" stroke-width="3.998" stroke-miterlimit="10" d="M295.38 88.325c-.467 6.33 1.332 12.328 5.264 18.126 3.932 5.8 8.863 9.6 14.928 11.47 6.064 1.87 11.328 1.27 15.927-1.86 4.59-3.13 7.06-7.79 7.46-14.13.46-6.33-1.27-12.33-5.2-18.12-3.93-5.79-8.93-9.59-15-11.46-5.93-1.8-11.2-1.2-15.8 1.93-4.6 3.14-7.13 7.8-7.6 14.06z" stroke-linecap="round" stroke-linejoin="round"/>
  <path fill="#543e3c" d="M276.52 159.03c-4.465-1.133-8.796-.4-13.128 2.066-4.332 2.465-7.397 6.064-9.063 10.73-1.54 4.198-1.67 8.13-.27 11.927-6.53 9.396-14 16.86-22.46 22.326 4.6 7.79 9.66 14.32 15.12 19.52 4.33 4.06 8.86 7.33 13.73 9.79-2.87-14.93-1.47-28.99 4.26-42.25 4.26 1 8.46.26 12.66-2.14 4.33-2.47 7.33-6.07 8.99-10.8 1.73-4.67 1.6-9.06-.33-13.2-1.94-4.2-5.13-6.87-9.53-8"/>
  <path fill="#ffd064" d="M124.914 241.597c-20.658 8.196-37.45 18.592-50.38 31.32-12.26 12.063-17.26 23.59-14.927 34.454 7.797-2.59 15.86-3.53 24.124-2.86 2.74-12.26 19.66-21.85 50.78-28.72 10.8 27.39 24.66 52.52 41.65 75.31l99.96-41.32c-22.72-20.45-41.78-42.05-57.31-64.7 11.33-4.86 20.66-11.39 27.93-19.46-5.46-5.2-10.53-11.73-15.12-19.52-11.93 7.66-25.72 11.33-41.38 11.06-.66 33.66 6.87 70.77 22.59 111.29-20.19-13.53-37.25-27.25-51.18-41.12-13.92-13.92-26.19-29.12-36.71-45.71"/>
  <path fill="#543e3c" d="M82.73 330.16c-.665 2.068-.532 4.133.4 6.333 1.134 2.732 3.066 4.864 5.865 6.33 2.8 1.4 5.665 1.8 8.53 1.066 2.866-.74 4.865-2.27 6.065-4.73 1.266-2.47 1.332-5 .2-7.74-1.133-2.8-3.133-4.93-5.865-6.33-2.8-1.4-5.598-1.8-8.396-1.07-5.2-7.13-7.14-13.66-5.8-19.53-8.27-.67-16.33.26-24.13 2.86-2.87.87-5.67 2-8.47 3.4 11.93 4.73 22.46 11.2 31.59 19.39m81.77-116.75l-33.99 15.26c-1.27 3.8-3.13 8.13-5.6 12.93 10.53 16.59 22.79 31.78 36.72 45.71 13.92 13.86 30.98 27.59 51.18 41.12-15.73-40.52-23.26-77.64-22.59-111.29-8.07-.2-16.66-1.4-25.73-3.73"/>
  <path fill="#3a2b29" d="M85.93 330.16c-2.333 4.6-1.533 8.2 2.532 10.93 4.065 2.733 8.93 2.666 14.46-.266 3.666-10.796-.6-16.327-12.66-16.66-5.465-7.197-7.93-13.728-7.33-19.592H71.135C72.07 313.17 77 321.7 85.93 330.162m197.254-168.266l-5.997-4.332-19.326 8.33 7.67 3.333c-4.26 3.73-5.93 9.196-4.99 16.326-4 6.863-7.66 12.395-11.06 16.594-4.13 5.13-8.46 9.13-12.99 11.994l10.8 13.27c2.47-.8 3.93-.73 4.27.14.6-12.73 4.27-25.05 11-36.98 21.53 4.27 28.46-5.26 20.66-28.65"/>
  <path fill="#cba357" d="M71.136 304.572H82.93c1.267-13.328 18.194-23.257 50.647-29.72l26.19 51.977 8.33-4.87 64.84-33.92c-10.86-18-17.325-32.72-19.392-44.18 20.26-4.67 31.522-10.13 33.72-16.46l-10.795-13.26c-8.463 6.26-17.46 9.86-27.057 10.79-9.396.86-18.858-.8-28.52-5.07l-53.646 24.32c-17.393 9.66-31.32 19.92-41.65 30.92-10.597 11.26-15.394 21.06-14.46 29.45"/>
  <path d="M277.387 155.83h-.067c-5.265-1.398-10.463-.598-15.593 2.4-5.066 2.866-8.598 7.065-10.53 12.462-1.666 4.332-1.933 8.53-.8 12.528-6.064 8.397-12.928 15.06-20.592 20.06-11.394 7.263-24.522 10.795-39.517 10.528-7.864-.2-16.193-1.4-24.924-3.6l-1.132-.265-36.386 16.326-.466 1.4c-1.133 3.39-2.732 7.13-4.865 11.33-20.592 8.26-37.318 18.79-50.313 31.58-12.195 11.99-17.66 23.52-16.327 34.58-2.066.73-4.13 1.6-6.197 2.6l-6.664 3.26 6.93 2.86c10.863 4.26 20.592 10.06 29.122 17.46-.267 2.06.067 4.2 1 6.4v.06c1.4 3.46 3.865 6.13 7.397 8h.066c3.53 1.79 7.13 2.19 10.79 1.33 3.86-1 6.59-3.13 8.26-6.53v.06c1.66-3.33 1.8-6.86.33-10.53h-.07c-1.47-3.53-3.93-6.19-7.4-7.99-2.8-1.4-5.6-2-8.4-1.74-3.67-5.53-5-10.6-4.07-15.19 2.73-10.6 17.93-19.13 45.51-25.53 10.73 26.59 24.39 51.04 40.98 73.37l1.53 2.06 107.23-44.31-3.87-3.53c-21.39-19.33-39.58-39.59-54.51-60.84 9-4.33 16.73-9.73 23.06-16.19 3.8 3.26 7.86 6 12.06 8.13l5.93 3.06-1.2-6.67c-2.6-13.39-1.53-25.99 3.13-37.92 4.06.34 8.13-.6 12.19-2.93 5-2.93 8.53-7.13 10.46-12.59v.07c2.07-5.6 1.87-10.86-.47-15.8h.07c-2.46-5.13-6.33-8.39-11.73-9.79zM76.867 275.318c12.662-12.462 29.122-22.657 49.313-30.588l.6-.267.534-.2.6-1.134c2.265-4.4 4.064-8.4 5.33-12l31.588-14.2c8.863 2.2 17.325 3.33 25.323 3.53h.066c15.6.27 29.39-3.2 41.46-10.46 3.53 5.6 7.33 10.53 11.4 14.72-6.86 7.13-15.39 12.86-25.59 17.26l-3.66 1.66 2.27 3.26c14.73 21.59 32.72 42.18 53.98 61.77L177.31 347c-16.06-21.99-29.32-46.113-39.65-72.436l-1.067-2.665-2.8.6c-31.79 7-49.45 17-52.98 29.86-6.2-.2-12.33.46-18.26 2.06-.8-9.2 4-18.93 14.33-29.13zm9.996 50.714l1.2 1.733 2.332-.467c2-.533 3.998-.267 6.064.8h-.07c2.06 1 3.46 2.532 4.33 4.6.73 1.73.66 3.397-.07 4.996h-.07c-.74 1.533-2.07 2.532-3.87 3-2.07.465-4.13.2-6.2-.8-2.07-1.067-3.47-2.6-4.27-4.6v-.065h-.07c-.6-1.4-.67-2.74-.27-4l.6-2.2-1.53-1.33c-7.53-6.74-16.33-12.53-26.39-17.33l4.53-1.94c5.53-1.54 11.12-2.27 16.92-2.13-.67 6.06 1.6 12.59 6.79 19.72zM265.06 164.03c3.53-2.065 7.06-2.6 10.66-1.733 3.4.866 5.8 2.933 7.33 6.132v.06c1.534 3.26 1.6 6.8.2 10.59-1.398 3.93-3.93 6.99-7.53 9.06-3.4 1.93-6.796 2.53-10.263 1.8l-2.732-.6-1.065 2.46c-5.132 11.73-6.93 24.12-5.532 37.18-2.932-1.54-6.397-3.93-10.395-7.2-3.8-4-7.33-8.67-10.73-14 8.13-5.53 15.394-12.93 21.792-22.13l1-1.33-.6-1.73c-1.067-3.07-1-6.26.266-9.6v-.07c1.4-3.93 3.94-6.86 7.6-8.93"/>
  <path fill="#543e3c" d="M190.22 220.472h-.065c-7.998-.2-16.46-1.332-25.323-3.532l-31.588 14.195c-1.266 3.598-3.065 7.597-5.33 11.994l-.6 1.13-.534.2c10.063 15.46 21.725 29.72 34.853 42.85 13.927 13.86 30.987 27.59 51.18 41.11-15.194-39.19-22.725-75.17-22.592-107.96"/>
  <path fill="none" stroke="#000" stroke-width="1.333" stroke-miterlimit="10" d="M190.22 220.472c-.132 32.788 7.4 68.773 22.592 107.957-20.192-13.53-37.252-27.26-51.18-41.12-13.127-13.13-24.79-27.39-34.852-42.85" stroke-linecap="round" stroke-linejoin="round"/>
  <path fill="#94625e" d="M357.62 66.533l-3.53-2.998c-19.86 15.26-36.253 23.59-49.114 25.124.067 10.32 5.197 17.26 15.393 20.85 5.26-11.8 18.05-24.99 38.51-39.45l-1.27-3.54"/>
  <path fill="#f26d7d" d="M304.976 88.66c-6.33.2-10.996.465-13.995.797-5.39.6-10.66 2.267-15.92 5-17.12 9.062-29.72 19.79-37.65 32.186-7.73 12.062-9.06 22.325-4 30.72 6.47 7.332 16.66 9.13 30.52 5.332 14.26-3.864 28.26-12.662 41.92-26.323 4.2-4.197 7.4-8.73 9.6-13.66 1.13-2.867 2.8-7.264 4.93-13.196-10.19-3.597-15.32-10.528-15.39-20.857"/>
  <path fill="#74504d" d="M350.424 73.664v-4.797c-18.26 16.593-32.32 26.99-42.25 31.186l10.93 10.263c5.664-9.663 16.06-21.857 31.32-36.652"/>
  <path fill="#a3555c" d="M246.932 154.032c4.865 5.532 12.595 6.93 23.124 4.065 10.796-2.932 19.725-7.597 26.723-13.994 6.99-6.464 11.19-10.996 12.66-13.728 1.4-2.732 3.13-6.064 5.2-9.996.73-3 2.26-6.34 4.46-10.07l-10.93-10.26c-2.67 1.13-5 1.8-7.07 2-4.8.2-8.67.86-11.53 2.06-2.87 1.2-8.26 4.79-16.2 10.79-7.93 5.93-15.33 12.39-22.06 19.26-6.73 6.86-8.2 13.53-4.4 19.86"/>
  <path fill="none" stroke="#000" stroke-width="3.998" stroke-miterlimit="10" d="M320.37 109.516c-10.197-3.597-15.327-10.528-15.394-20.857" stroke-linecap="round" stroke-linejoin="round"/>
  <path fill="none" stroke="#000" stroke-width="6.664" stroke-miterlimit="10" d="M357.62 66.533l1.268 3.532c-20.46 14.462-33.255 27.656-38.52 39.45-2.13 5.933-3.797 10.33-4.93 13.197-2.2 4.93-5.398 9.463-9.597 13.66-13.66 13.66-27.65 22.46-41.91 26.323-13.86 3.798-24.05 2-30.52-5.33-5.06-8.397-3.73-18.66 4-30.722 7.93-12.395 20.53-23.124 37.65-32.187 5.27-2.732 10.53-4.4 15.93-5 3-.33 7.67-.597 14-.797 12.86-1.54 29.26-9.87 49.12-25.13z" stroke-linecap="round" stroke-linejoin="round"/>
  <path fill="none" stroke="#f26d7d" stroke-width="6.664" stroke-miterlimit="10" d="M255.46 127.376l-7.995 7.33 8.663 3.666 5 10.73 6.663-12.063 16.66-1-7.99-9v-12.66l-10.99 5" stroke-linecap="round" stroke-linejoin="round"/>
  <path fill="#f26d7d" d="M375.215 62.203c0-3.532-1.267-6.598-3.8-9.13-2.464-2.466-5.53-3.733-9.063-3.733-3.53 0-6.597 1.267-9.13 3.732-2.465 2.533-3.73 5.6-3.73 9.13 0 3.533 1.265 6.598 3.73 9.063 2.533 2.532 5.6 3.8 9.13 3.8 3.532 0 6.6-1.268 9.064-3.8 2.532-2.465 3.8-5.53 3.8-9.062"/>
  <path fill="none" stroke="#000" stroke-width="6.664" stroke-miterlimit="10" d="M371.416 53.072c-2.465-2.465-5.532-3.732-9.064-3.732-3.53 0-6.597 1.267-9.13 3.732-2.465 2.533-3.73 5.6-3.73 9.13 0 3.533 1.265 6.598 3.73 9.063 2.533 2.532 5.6 3.8 9.13 3.8 3.532 0 6.6-1.268 9.064-3.8 2.532-2.465 3.8-5.53 3.8-9.062 0-3.532-1.268-6.598-3.8-9.13z" stroke-linecap="round" stroke-linejoin="round"/>
  <path fill="#ffd064" d="M276.187 113.715l-5.598 2.6-20.73 18.858 5.99 2.532 5 10.73 6.66-12.063 16.66-1-8-8.996v-12.66"/>
  <path fill="#fff" d="M270.59 116.315l-5.398 2.398-9.33-5.332-.667 13.33-7.996 7.33 2.66 1.14 20.72-18.86"/>
  <path fill="none" stroke="#000" stroke-width="2.666" stroke-miterlimit="10" d="M270.59 116.315l-5.398 2.398-9.33-5.332-.667 13.33-7.996 7.33 2.66 1.14 5.99 2.53 5 10.73 6.66-12.06 16.66-1-8-8.99v-12.66z" stroke-linecap="round" stroke-linejoin="round"/>
  <path fill="#9ddff9" d="M347.16 104.785c.2-2 .2-3.998.065-5.93h-8.197c.067 1 0 2.065-.067 3.065-.4 6.33-2.86 10.996-7.46 14.128-4.6 3.132-9.86 3.73-15.92 1.865-6.06-1.865-10.99-5.664-14.93-11.462-3.93-5.79-5.73-11.79-5.26-18.12.47-6.26 3-10.93 7.6-14.06 4.6-3.13 9.87-3.73 15.8-1.93.33.07.6.2.93.33v-8.13c-8.33-2.46-15.66-1.46-22.12 3-6.46 4.4-10.06 10.93-10.86 19.53-.73 8.67 1.54 16.93 6.93 24.86 5.4 7.87 12.2 13 20.53 15.4 8.4 2.47 15.79 1.53 22.26-2.86 6.46-4.46 10-10.99 10.73-19.66"/>
  <path fill="none" stroke="#000" stroke-width="3.998" stroke-miterlimit="10" d="M339.028 98.855c.067.998 0 2.065-.067 3.065-.4 6.33-2.86 10.995-7.46 14.128-4.6 3.132-9.86 3.73-15.92 1.865-6.06-1.865-10.99-5.664-14.93-11.462-3.93-5.79-5.73-11.79-5.26-18.12.47-6.26 3-10.93 7.6-14.06 4.6-3.13 9.87-3.73 15.8-1.93.33.07.6.2.93.33" stroke-linecap="round" stroke-linejoin="round"/>
  <path fill="none" stroke="#000" stroke-width="3.998" stroke-miterlimit="10" d="M319.703 64.535c-8.33-2.466-15.66-1.466-22.124 2.998-6.47 4.4-10.07 10.93-10.87 19.526-.73 8.66 1.53 16.92 6.93 24.85 5.4 7.86 12.19 12.99 20.52 15.39 8.39 2.46 15.79 1.53 22.25-2.87 6.46-4.47 9.99-11 10.73-19.66.2-2 .2-4 .06-5.93" stroke-linecap="round" stroke-linejoin="round"/>
  <path fill="#935a8c" d="M217.344 111.85c-3.465-14.995-12.528-26.723-27.19-35.32-10.462-6.13-26.922-11.862-49.246-17.26-12.595-2.865-22.058-5.13-28.522-6.663-11.33-2.734-20.925-5.4-28.855-7.998-21.65-7.07-38.78-16.2-51.51-27.46 3.8 16.06 4.07 33.92.67 53.58-1.86 11.13-6.26 27.99-13.26 50.71-6.33 20.66-10 35.98-11.13 45.98-1.66 15.72.67 28.98 7.07 39.71 4.87 8.19 14.13 15.19 27.66 20.92 12.26 5.26 26.59 8.93 43.05 10.99 15.73 2.07 30.59 2.33 44.65.87 14.6-1.53 25.46-4.67 32.66-9.47 18.59-12.4 33.25-29.99 44.12-52.71 11.27-23.73 14.53-45.72 9.87-65.91"/>
  <path fill="none" stroke="#000" stroke-width="6.664" stroke-miterlimit="10" d="M190.155 76.53c-10.463-6.13-26.923-11.862-49.247-17.26-12.595-2.865-22.058-5.13-28.522-6.663-11.33-2.734-20.925-5.4-28.855-7.998-21.65-7.07-38.78-16.2-51.51-27.46 3.8 16.06 4.07 33.92.67 53.58-1.86 11.13-6.26 27.99-13.26 50.71-6.33 20.66-10 35.98-11.13 45.98-1.66 15.72.67 28.98 7.07 39.71 4.87 8.19 14.13 15.19 27.66 20.92 12.26 5.26 26.59 8.93 43.05 10.99 15.73 2.06 30.59 2.33 44.65.86 14.6-1.53 25.46-4.67 32.66-9.47 18.59-12.4 33.25-29.99 44.12-52.72 11.27-23.72 14.53-45.72 9.87-65.91-3.47-15-12.53-26.73-27.19-35.32z" stroke-linecap="round"/>
  <path fill="#674654" d="M210.147 134.44c-1.532-16.06-8.596-29.12-21.326-39.317-12.72-10.196-24.65-15.862-35.91-16.86-11.26-1.067-22.99-2.866-35.25-5.466-12.33-2.597-23.8-5.997-34.53-10.194-10.72-4.2-22.85-11.13-36.38-20.66C49.61 55.74 49.08 71 45.22 87.66c-2.133 9.395-6.797 23.59-14.06 42.715-6.532 17.393-10.53 30.32-11.93 38.785-2.132 13.328-.533 24.723 4.865 34.12 4.198 7.13 10.86 13.993 19.99 20.524 9.13 6.464 21.39 10.73 36.72 12.66 15.326 1.935 30.054 2.733 44.182 2.468 14.07-.333 26.86-4.132 38.26-11.396 11.4-7.264 22.46-20.592 33.19-39.984 10.66-19.392 15.26-37.052 13.73-53.112"/>
  <path fill="none" stroke="#935a8c" stroke-width="11.995" stroke-miterlimit="10" d="M169.763 82.795c13.06 2.598 22.192 9.862 27.456 21.724 5.99 13.66 4.93 30.58-3.2 50.64-4.67 11.53-9.13 20.99-13.4 28.45-1.14 2-2.27 3.86-3.4 5.53-5 7.53-10.47 13.46-16.4 17.66-1.4 1-2.87 1.93-4.33 2.73-6.87 3.8-15 5.93-24.33 6.33-1.6.07-3.27.13-4.93.07-11.53-.27-25.73-3-42.59-8.13-20.53-6.2-35.19-15.33-44.05-27.26-8-10.73-9.87-21.46-5.67-32.19 4.26-10.73 13.26-18.13 27.05-22.19 15.39-4.47 33.38-3.47 53.97 3 1-16.93 7.33-29.72 18.99-38.45 10.46-7.87 22.06-10.53 34.79-7.93z" stroke-linecap="round"/>
  <path fill="#ffca6d" d="M169.096 81.46c-12.728-2.597-24.323.068-34.785 7.932-11.66 8.73-17.99 21.524-18.99 38.45-20.59-6.463-38.58-7.463-53.98-2.998-13.79 4.065-22.79 11.46-27.05 22.19-4.2 10.73-2.33 21.46 5.67 32.19C48.81 191.15 63.48 200.28 84 206.48c9.26-7.666 18.857-14.53 28.787-20.66 8.796-5.4 17.86-10.264 27.255-14.53 9.597-4.4 19.46-8.196 29.656-11.33 7.73-2.397 15.595-4.462 23.657-6.13 8.13-20.06 9.198-36.984 3.2-50.646-5.265-11.86-14.396-19.125-27.457-21.724"/>
  <path fill="#fff" d="M193.353 153.832c-8.062 1.667-15.926 3.732-23.657 6.13l10.263 22.326c4.26-7.464 8.72-16.927 13.39-28.456m-80.57 31.988c-9.93 6.13-19.53 12.995-28.79 20.66 16.86 5.13 31.05 7.86 42.58 8.128 1.66.067 3.33 0 4.93-.067l-18.73-28.72"/>
  <path fill="#fff" d="M176.56 187.82c1.133-1.668 2.267-3.533 3.4-5.532l-10.264-22.325c-10.196 3.132-20.06 6.93-29.655 11.33l20.13 34.186c5.93-4.2 11.4-10.13 16.4-17.66"/>
  <path fill="#fff" d="M155.836 208.21c1.465-.8 2.93-1.73 4.33-2.73l-20.125-34.188c-9.39 4.265-18.45 9.13-27.25 14.527l18.73 28.72c9.33-.4 17.46-2.53 24.33-6.33"/>
  <path fill="none" stroke="#000" stroke-width="3.998" stroke-miterlimit="10" d="M83.997 206.477c-20.525-6.197-35.186-15.326-44.05-27.256-7.995-10.72-9.862-21.45-5.663-32.18 4.265-10.73 13.26-18.12 27.056-22.19 15.393-4.46 33.387-3.46 53.978 3 1-16.92 7.33-29.72 18.993-38.45 10.47-7.86 22.06-10.52 34.79-7.93 13.06 2.6 22.19 9.87 27.46 21.73 6 13.66 4.93 30.59-3.2 50.65m0 0c-8.06 1.67-15.92 3.74-23.65 6.13m-56.91 25.86c-9.93 6.13-19.52 13-28.79 20.66m95.97-24.19c-1.13 2-2.26 3.86-3.4 5.53-4.99 7.53-10.46 13.46-16.39 17.66" stroke-linecap="round"/>
  <path fill="none" stroke="#000" stroke-width="3.998" stroke-miterlimit="10" d="M131.51 214.54c-1.597.068-3.264.135-4.93.068-11.528-.267-25.723-3-42.583-8.13m76.17-.998c-1.4.997-2.866 1.93-4.33 2.73-6.865 3.8-14.996 5.93-24.326 6.33m8.53-43.248l20.13 34.187m33.19-51.65c-4.66 11.53-9.13 20.99-13.39 28.45m-10.27-22.32l10.27 22.32m-67.17 3.53l18.73 28.72m38.18-54.57c-10.19 3.13-20.06 6.93-29.65 11.33m0 0c-9.39 4.26-18.45 9.13-27.25 14.52" stroke-linecap="round"/>
  <path fill="#6f4d4a" d="M73.535 154.765c-2.132 1.8-3.2 4-3.2 6.53 0 2.533 1.068 4.666 3.2 6.465 2.2 1.8 4.798 2.732 7.863 2.732 3.066 0 5.665-.932 7.797-2.732 2.2-1.8 3.265-3.932 3.265-6.464 0-2.532-1.066-4.732-3.265-6.53-2.132-1.733-4.73-2.6-7.797-2.6-3.065 0-5.664.867-7.863 2.6"/>
  <path fill="none" stroke="#000" stroke-width="3.998" stroke-miterlimit="10" d="M70.336 161.296c0 2.532 1.066 4.665 3.2 6.464 2.198 1.8 4.797 2.732 7.862 2.732 3.066 0 5.665-.932 7.797-2.732 2.2-1.8 3.265-3.932 3.265-6.464 0-2.532-1.066-4.732-3.265-6.53-2.132-1.733-4.73-2.6-7.797-2.6-3.065 0-5.664.867-7.863 2.6-2.133 1.798-3.2 3.998-3.2 6.53z" stroke-linecap="round"/>
  <path fill="#6f4d4a" d="M169.096 127.443c1.533-2.6 2.067-5.264 1.6-8.064-.467-2.74-1.8-4.67-4-5.94-2.197-1.27-4.596-1.47-7.196-.54-2.665 1-4.73 2.8-6.264 5.4-1.532 2.6-2 5.33-1.532 8.06.465 2.73 1.8 4.8 4 6.06 2.197 1.26 4.596 1.4 7.195.4 2.59-1 4.66-2.8 6.19-5.4"/>
  <path fill="none" stroke="#000" stroke-width="3.998" stroke-miterlimit="10" d="M170.696 119.38c-.467-2.732-1.8-4.665-4-5.932-2.197-1.265-4.596-1.465-7.196-.533-2.665 1-4.73 2.8-6.264 5.398-1.532 2.6-2 5.33-1.532 8.063.465 2.733 1.8 4.8 4 6.064 2.197 1.267 4.596 1.4 7.195.4 2.59-1 4.66-2.8 6.19-5.397 1.53-2.6 2.06-5.264 1.6-8.064z" stroke-linecap="round"/>
  <path fill="#a3555c" d="M368.35 58.937c-1.466-1.4-3.198-2.132-5.265-2.132-2.065 0-3.798.732-5.264 2.132-1.46 1.466-2.2 3.2-2.2 5.264 0 2.07.74 3.87 2.2 5.34 1.47 1.47 3.2 2.2 5.27 2.2s3.8-.73 5.27-2.2c1.47-1.46 2.2-3.26 2.2-5.33s-.73-3.79-2.2-5.26"/>
  <path fill="none" stroke="#000" stroke-width="6.664" stroke-miterlimit="10" d="M222.94 719.206l34.52-16.66m-58.176-4.998l36.252-47.314M169.63 675.89l10.862-29.787" stroke-linecap="round" stroke-linejoin="round"/>
  <path fill="#f26d7d" d="M196.952 688.618c-18.525-14.86-37.385-25.79-56.644-32.72l-4 39.318 16.128 12.86 37.385 29.79 15.47 12.328 40.32-11.33c-14.99-19.524-31.25-36.25-48.64-50.246"/>
  <path fill="#9ddff9" d="M205.283 750.194l-15.462-12.33c-5.93 7.93-12.32 12.73-19.25 14.53-7 1.798-13.53.465-19.59-4.133-6.33-4.73-9.06-11.12-8.33-19.19.6-7.06 3.87-14.06 9.8-20.99l-16.12-12.86c-10.59 12.33-16.39 23.99-17.39 35.12-1.06 12.33 3.87 23.33 14.73 32.92 11.53 10.2 24.06 14.06 37.59 11.6 13.53-2.46 24.92-10.66 34.06-24.65"/>
  <path fill="#716f75" d="M152.436 708.077c-5.93 6.93-9.196 13.928-9.796 20.992-.733 8.06 2 14.46 8.33 19.19 6.065 4.6 12.595 5.93 19.593 4.13 6.93-1.8 13.328-6.6 19.258-14.53l-37.38-29.79"/>
  <path fill="#86adc0" d="M200.35 745.263l-12.794-10.197-30.855-24.59-13.32-10.662c-8.73 10.196-13.46 19.858-14.32 29.055-.86 10.19 3.13 19.25 12.13 27.18 9.53 8.39 19.86 11.59 31.05 9.53 11.2-2 20.59-8.8 28.13-20.33"/>
  <path fill="#c25e69" d="M196.62 743.863l33.652-10.33c-20.325-27.922-46.18-49.38-77.636-64.374l-4.997 32.65 48.98 42.05"/>
  <path fill="#9ddff9" d="M134.51 739.865c1.533-1.533 2.333-3.333 2.333-5.465 0-2.132-.8-3.998-2.332-5.53-1.53-1.534-3.33-2.267-5.46-2.267s-4 .733-5.53 2.266c-1.53 1.53-2.26 3.39-2.26 5.53s.74 3.93 2.27 5.46c1.53 1.53 3.4 2.33 5.53 2.33 2.14 0 3.94-.8 5.47-2.33"/>
  <path fill="#685f63" d="M152.436 708.077c-5.93 6.93-9.196 13.928-9.796 20.992-.733 8.06 2 14.46 8.33 19.19 6.065 4.6 12.595 5.93 19.593 4.13 6.93-1.8 13.328-6.6 19.258-14.53l-37.38-29.79"/>
  <path fill="none" stroke="#000" stroke-width="3.998" stroke-miterlimit="10" d="M205.283 750.194l-15.462-12.33m-37.38-29.787l-16.12-12.86m16.13 12.86c-5.93 6.93-9.19 13.928-9.79 20.992-.73 8.06 2 14.46 8.33 19.19 6.07 4.6 12.6 5.93 19.6 4.13 6.93-1.8 13.33-6.6 19.26-14.53m0 0l-37.38-29.79" stroke-linecap="round"/>
  <path fill="none" stroke="#000" stroke-width="6.664" stroke-miterlimit="10" d="M196.952 688.618c17.393 13.995 33.653 30.722 48.648 50.247l-40.317 11.33c-9.13 13.993-20.526 22.19-34.054 24.656-13.53 2.47-26.06-1.4-37.59-11.59-10.86-9.59-15.8-20.59-14.73-32.92 1-11.13 6.79-22.79 17.39-35.12l4-39.31c19.26 6.93 38.12 17.86 56.64 32.72z" stroke-linecap="round"/>
  <path fill="#716f75" d="M173.628 630.575c-.667 3.532-.067 6.997 1.867 10.262 1.932 3.266 4.597 5.532 7.996 6.664 3.4 1.14 6.53.87 9.4-.8 2.93-1.66 4.73-4.26 5.4-7.79.6-3.53 0-6.99-1.93-10.26-1.93-3.26-4.53-5.53-7.93-6.66-3.4-1.2-6.59-.93-9.53.74-2.86 1.67-4.66 4.33-5.26 7.87m56.65 4.47c-1.26 3.27-1.06 6.53.67 9.8 1.67 3.34 4.33 5.73 8 7.2 3.67 1.4 7.27 1.54 10.8.27 3.53-1.27 5.93-3.47 7.2-6.73 1.27-3.27 1.07-6.6-.66-9.86-1.66-3.33-4.39-5.73-8.06-7.13-3.66-1.47-7.2-1.6-10.73-.33-3.53 1.27-5.93 3.53-7.19 6.8m31.65 52.24c-3.13 1-5.33 2.74-6.66 5.34-1.26 2.53-1.26 5.13 0 7.73 1.27 2.67 3.4 4.6 6.47 5.86 3 1.2 6.06 1.34 9.2.34 3.06-.93 5.26-2.66 6.53-5.19 1.33-2.6 1.4-5.2.13-7.87-1.27-2.6-3.47-4.53-6.46-5.73-3.06-1.26-6.13-1.4-9.19-.47"/>
  <path fill="none" stroke="#000" stroke-width="6.664" stroke-miterlimit="10" d="M230.94 644.836c1.665 3.332 4.33 5.73 7.996 7.197 3.664 1.4 7.263 1.533 10.795.266 3.54-1.27 5.93-3.47 7.2-6.73 1.27-3.27 1.07-6.6-.66-9.87-1.66-3.34-4.39-5.73-8.06-7.13-3.66-1.47-7.2-1.6-10.73-.34-3.53 1.26-5.93 3.53-7.2 6.79-1.26 3.26-1.06 6.53.67 9.79zm24.32 47.78c-1.264 2.533-1.264 5.13 0 7.73 1.268 2.667 3.4 4.6 6.467 5.865 2.998 1.2 6.064 1.34 9.196.34 3.065-.93 5.264-2.66 6.53-5.2 1.332-2.6 1.4-5.2.134-7.86-1.267-2.6-3.466-4.53-6.464-5.73-3.066-1.26-6.13-1.4-9.196-.47-3.132 1-5.332 2.74-6.666 5.33zm-79.765-51.78c1.932 3.267 4.597 5.533 7.996 6.665 3.4 1.14 6.53.87 9.4-.8 2.93-1.66 4.73-4.26 5.4-7.79.6-3.53 0-6.99-1.93-10.26-1.93-3.26-4.53-5.53-7.93-6.66-3.4-1.2-6.59-.93-9.53.74-2.86 1.67-4.66 4.33-5.26 7.87-.66 3.53-.06 7 1.87 10.26z" stroke-linecap="round" stroke-linejoin="round"/>
  <path fill="#c6996d" d="M384.677 204.745c-16.593-2.732-34.72-.6-54.445 6.464-19.66 7.06-35.052 16.92-46.115 29.58-11.13 12.73-14.66 24.52-10.73 35.52 3.933 10.99 14.262 17.86 30.856 20.59 16.593 2.73 34.718.53 54.378-6.53 19.73-7.06 35.12-16.93 46.19-29.52 11.13-12.73 14.66-24.53 10.73-35.52-3.93-11-14.26-17.86-30.85-20.59"/>
  <path fill="#8f6c5e" d="M350.89 281.115c17.527-5.266 31.522-12.862 42.05-22.658 10.463-9.796 14.395-19.06 11.796-27.656-2.6-8.66-10.996-14.19-25.124-16.52-14.193-2.33-30.055-.86-47.58 4.4-17.527 5.27-31.588 12.86-42.05 22.66-10.463 9.8-14.394 19-11.795 27.66 2.598 8.6 10.994 14.13 25.122 16.53 14.19 2.33 30.05.87 47.58-4.4"/>
  <path d="M853.156 387.94l-.865-.868c-29.32-32.32-60.37-59.376-93.23-81.233l-4.2-2.87-2.06 10.99c-36.58-17.06-73.1-31.66-109.69-43.85h-.13c-.2-.07-.46-.14-.66-.14-.06-.07-.06-.07-.13-.07-60.71-14.2-121.35-23.13-182.06-26.66l-3.46-.2-1.4 68.17c0 .2 0 .33.07.53l8.87 64.17L485.24 389l-26.52-.332-66.176-138.41-82.03 13.394-10.86 49.646L274.8 271.65c-.4-.73-1-1.2-1.734-1.46s-1.532-.26-2.266 0c-26.33 9.67-52.32 21.13-77.97 34.52-.07 0-.07 0-.14.07h-.06c-19.66 10.27-39.12 21.59-58.38 33.99l-.135.07-.068.07c-34.045 21.86-67.5 47.18-100.285 75.9l-1 .865-.135 1.4c-3.8 53.116 3.664 106.228 22.256 159.34.2.467.47.933.93 1.333.4.332.87.6 1.4.8l83.9 21.122 31.99-35.52c.33-.468.6-.93.8-1.467.13-.535.13-1.07 0-1.6l-7.463-28.79 48.99 29.855 49.047-12.664.133-.065 47.514-12.33 58.31-9.19c.668-.13 1.268-.4 1.73-.87.47-.47.8-1 1-1.6l18.396-71.24 18.127 59.04 47.58-11.73v6.26l132.55 6.8 101.826 19.45c.2.07.467.07.666.13l38.91 7.4 11-13.06 5.33 55.71 37.85-2.8c.2 0 .47-.07.74-.13l50.11-15-13.39-85.04 21.79-17.4c.53-.46.93-1 1.13-1.73 6-23.39 8.46-47.71 7.4-72.97zm-13.595 71.436l-1.93 1.533-15.99 12.72-3.73-23.13-7.33-4.07 5.4 33.72v.26l12.8 81.1-41.92 12.53-2.33.73-1.66.13-29.25 2.13-5.4-55.71 27.59-32.59 3.67-4.33.27-.34c.14-.2.27-.34.4-.54l-6.33-2.8-1.8 2.2-29.79 35.18-.06.06-13.52 16.06-30.72-5.87 30.66-53.65.47-.87c.14-.33.27-.67.34-1v-.07l.4-1.93 9.13-48.05c.07-.13.07-.26.14-.4.06-.27.06-.54.06-.8l19.46-102.23v-.06c0-.07 0-.14.07-.2l.94-5c30.59 20.86 59.58 46.31 87.03 76.44.87 23.12-1.33 45.44-6.6 67.04-.13.6-.26 1.13-.4 1.73zM270.53 277.383l2.732 4.665 24.323 40.783-23.39 107.63-2.866 13.33-8.07 36.92-.07.34c-.07.47-.07 1 .07 1.53 0 .07 0 .2.06.27.13.34.33.74.6 1.07l.6.67 40.85 47.38-40.92 10.6L216 501.71l-2.2-1.865.07 1.33c.065.866-.2 1.666-.8 2.4-.6.73-1.333 1.13-2.267 1.2-.87.064-1.67-.2-2.4-.8l.33.33 47.848 40.318-40.12 10.393-53.64-32.653-.06-.068h-.06l-1.8-1.133-3.26-2c-.06-.33-.2-.662-.26-1-1.06-4.994-2.06-9.992-3.06-14.86l-.06-.13c0-.065 0-.13-.07-.2v-.13c-3.73-18.46-6.73-36.72-9.06-54.78-4.6-35.453-6.53-70.305-5.86-104.56 17.13-10.995 34.39-21.125 51.91-30.39l2.4 57.91 6.67-2.53-2.53-58.78c23.66-12.26 47.58-22.925 71.9-31.92.27-.135.6-.268.93-.4zM39.218 418.86c30.52-26.656 61.64-50.313 93.293-71.04-.46 32.92 1.54 66.375 5.87 100.36.07.2.07.468.14.735.07.466.14.933.2 1.465.07.667.14 1.4.27 2.133 2 14.994 4.47 30.054 7.4 45.182l-44.32-22.725-3.73-1.93.27.135c.34.265.67.6.94 1 .2.332.34.732.4 1.132.13.732.07 1.465-.26 2.132-.06.13-.2.26-.26.4-.53.73-1.26 1.13-2.13 1.33h-.07c-.86.13-1.66-.07-2.4-.54l-.26-.2c.2.2.4.33.6.46l4.4 2.26 48.52 24.92c1.07 5.26 2.2 10.53 3.33 15.86.07.46.27.86.6 1.2.2.33.54.66.94.93l5.33 3.2 8.73 33.72-28.12 31.19-74.51-18.72-3.8-1c-.13-.34-.26-.74-.33-1.07-17.4-50.84-24.4-101.69-21-152.53zm325.334-48.915c-.067 0-.067 0-.067-.066l-3.132 9.86 26.123 63.64-20.26 78.23-1 .13-53.51 8.46-41.183-47.72-1.467-1.67v-.07l.467-2.14 33.853-155.67v-.14l11.663-53.31 72.7-11.87 64.57 135.08 2.53 44.64.26 4.07 1.13 19.99v33.19l-43.05 10.6-15.06-49.51-.6-1.94-.07-.14c0-.07 0-.14-.07-.2l-.53-1.53-3.73-9.86-.07-.07v-.13l-.07-.07zm98.293-52.312l-.866-5.997-.07-.533 1.26-60.976c58.44 3.598 116.82 12.196 175.19 25.722l6.59 1.93c35.52 11.99 71.04 26.32 106.56 42.91L741.39 374l-1.265 6.666-6.996 36.785-1.26 6.6-8.66 45.58-.27 1.4-1.4 2.4-30.66 53.65-94.9-18.06 35.92-45.71c.4-.53.6-1.13.66-1.8l.33-4.86.27-4.06 3.86-57.37c.06-.47 0-.94-.2-1.4-.2-.47-.4-.8-.74-1.14l-.2-.26-17.26-17.93 20.52-43.25-3.87-.93h-.07l-19.52 41.1-3.14 6.33 17.72 18.46-4.26 63.04-.07.74-2.53 3.27-35.06 44.59-124.48-6.4v-40.38l-.07-1.8-3.74-63.91 92.5 1.27-6.93-6.72-47.52-.67-27.79-17.26-7.53-54.31"/>
  <path fill="#fff" d="M779.452 484.433l-3.665 4.332 7.064 86.166 1.67-.13 2.33-.73-7.39-89.63"/>
  <path fill="#543e3c" d="M782.85 574.93l-7.063-86.165-27.59 32.587 5.4 55.71 29.254-2.13"/>
  <path fill="#76747a" d="M771.988 482.967l-43.448-8.196-30.655 53.65 30.722 5.87 13.526-16.06.067-.06 29.788-35.18m45.916-32.45l3.732 23.12 15.993-12.73z"/>
  <path fill="#fff" d="M837.63 460.91l1.93-1.534c.135-.6.268-1.132.4-1.732l-25.188-13.46-5.065-2.533.866 4.8 7.33 4.07 19.726 10.4m-108.29 11.99c-.07.34-.2.67-.34 1l-.47.87 43.44 8.2 1.8-2.2-.07-1.53-43.98-8.33-.4 1.94v.07"/>
  <path fill="#543e3c" d="M815.705 413.795v-7.93l-46.116-30.988 4.13 104.36.06 1.53 6.33 2.8.4-1.8v-.132l-3.73-93.896 38.91 26.05"/>
  <path fill="#9ddff9" d="M815.705 405.864v7.93l-38.918-26.055 3.732 93.89v.13l-.4 1.8c-.14.2-.27.33-.4.53l-.27.33 7.39 89.63 41.91-12.53-12.8-81.1v-.27l-5.4-33.72-.87-4.8 5.06 2.53 25.19 13.46c5.26-21.59 7.46-43.92 6.6-67.04-27.46-30.12-56.45-55.58-87.04-76.44l-.94 5c-.07.06-.07.13-.07.2v.06l-19.46 102.23c0 .26 0 .53-.07.8-.06.13-.06.26-.13.39l-9.13 48.05 43.98 8.33-4.13-104.36 46.12 30.99"/>
  <path fill="#d8f5fc" d="M273.255 282.048l-2.732-4.665c-.334.133-.667.266-.934.4-4.2 52.178-3.6 107.49 1.73 166l2.86-13.328c-4.13-52.046-4.47-101.494-.94-148.407"/>
  <path fill="#543e3c" d="M297.58 322.83l-24.325-40.782c-3.532 46.913-3.2 96.36.933 148.407l23.39-107.624"/>
  <path fill="#76747a" d="M305.376 531.948l-40.85-47.38-48.515 17.125 48.45 40.85 40.92-10.595"/>
  <path fill="#fff" d="M157.635 519.152l3.265 2 47.848-16.86-.333-.333c-.467-.4-.8-.87-1-1.4l-.2-.8v-.07l-.067-1.14-49.78 17.59c.067.33.2.66.267 1"/>
  <path fill="#76747a" d="M162.765 522.285l.067.067 53.645 32.653 40.118-10.396-47.847-40.32-47.848 16.86 1.8 1.13h.065"/>
  <path fill="#543e3c" d="M207.148 421.66l-6.53 2.53 6.53 76.37.067 1.133v.067l.2.8c.2.533.533 1 1 1.4.733.6 1.532.865 2.398.8.934-.068 1.666-.468 2.266-1.2.6-.733.86-1.533.8-2.4l-.07-1.333-.14-1.6-6.53-76.568"/>
  <path fill="#fff" d="M263.26 482.567c-.135-.532-.135-1.066-.068-1.532l.067-.334-49.58 17.53.13 1.6 2.2 1.87 48.51-17.12-.6-.66c-.27-.33-.47-.73-.6-1.06-.07-.06-.07-.2-.07-.26"/>
  <path fill="#9ddff9" d="M200.217 368.48l-6.664 2.532-2.398-57.91c-17.527 9.262-34.787 19.393-51.914 30.387-.66 34.25 1.27 69.1 5.87 104.55 2.33 18.06 5.33 36.32 9.06 54.78v.13c.07.06.07.13.07.2l.07.13c1 4.86 2 9.86 3.07 14.86l49.78-17.59-6.53-76.37 6.53-2.53 6.53 76.56 49.58-17.53 8.07-36.92c-5.33-58.51-5.93-113.82-1.73-166-24.32 8.99-48.24 19.66-71.9 31.92l2.53 58.77"/>
  <path fill="#fff" d="M138.976 452.512c-.133-.732-.2-1.465-.267-2.132-.07-.532-.14-1-.2-1.465-.07-.267-.07-.534-.14-.734l-40.38 24.6.33.27 3.73 1.93 36.92-22.45"/>
  <path fill="#76747a" d="M146.372 497.695c-2.932-15.128-5.397-30.188-7.396-45.183l-36.92 22.46 44.316 22.723"/>
  <path fill="#9ddff9" d="M132.51 347.82c-31.653 20.727-62.774 44.384-93.295 71.04-3.398 50.845 3.6 101.692 20.992 152.54l44.982-30.456-10.07-62.04c-.2-.135-.4-.268-.6-.468l-34.45-23.924 38.78-25.39.73 7.33L72 454.712l25.99 18.06 40.385-24.59c-4.332-33.987-6.33-67.44-5.865-100.36"/>
  <path fill="#543e3c" d="M99.525 474.17c-.267-.4-.6-.733-.933-.998l-.267-.133-.333-.27-25.99-18.06 27.59-18.26-.734-7.33-38.785 25.39 34.454 23.92.266.2c.733.46 1.532.66 2.4.53h.066c.86-.2 1.59-.6 2.13-1.34.06-.14.2-.27.26-.4.33-.67.4-1.4.26-2.13-.07-.4-.2-.8-.4-1.14"/>
  <path fill="#fff" d="M99.525 481.168l-4.4-2.265 10.064 62.04L60.2 571.4c.066.332.2.732.333 1.064l3.8 1 43.314-29.388.8-.533c.332-.2.532-.534.732-.867 0-.067 0-.133.06-.2.06-.332.13-.6.06-.932l-.2-1.2-9.6-59.176"/>
  <path fill="#543e3c" d="M151.37 521.952c-1.133-5.332-2.265-10.596-3.33-15.86l-48.515-24.924 9.596 59.176 57.85 20.66-8.73-33.72-5.33-3.2c-.4-.267-.73-.6-.93-.933-.33-.33-.53-.73-.6-1.19"/>
  <path fill="#76747a" d="M138.843 592.19l28.12-31.187-59.308-16.927-43.316 29.388 74.5 18.727"/>
  <path fill="#93cae0" d="M109.12 540.344l.2 1.2c.067.333 0 .6-.066.932-.067.067-.067.133-.067.2-.2.333-.4.667-.733.867l-.8.533 59.31 16.927-57.843-20.66"/>
  <path fill="#fff" d="M456.115 441.45l-.267-4.065-57.976 14.528.533 1.532c.067.067.067.134.067.2l.067.134.6 1.93 56.97-14.26"/>
  <path fill="#76747a" d="M457.248 461.443l-1.133-19.992-56.976 14.27 15.06 49.52 43.04-10.59v-33.19"/>
  <path d="M358.22 372.28h.068l-.133-.335c0 .067 0 .2.066.334"/>
  <path fill="#9ddff9" d="M339.895 463.775l.466-.267-.26-.467z"/>
  <path fill="#fff" d="M361.353 379.74l-2.598-6.196-22.392 88.1-65.84 16.992-.467 2.132v.067l1.467 1.665 65.44-16.927 1.532-.398c.133-.067.266-.067.4-.134.2-.13.333-.26.466-.4.27-.26.47-.53.54-.86l.2-.73 21.26-83.3"/>
  <path fill="#93cae0" d="M340.36 463.508l-.465.267c-.067.333-.267.6-.534.866-.13.14-.26.27-.46.4-.13.07-.26.07-.4.14l-1.53.4 29.26 56.18 1-.13-26.85-58.11"/>
  <path fill="#543e3c" d="M340.095 463.04l.266.468 26.86 58.11 20.26-78.235-26.12-63.642-21.26 83.3"/>
  <path fill="#76747a" d="M336.963 465.573l-65.44 16.927 41.182 47.715 53.512-8.463-29.254-56.18"/>
  <path fill="#543e3c" d="M405.936 343.89l-2.4-6.265-53.245 10.463 7.87 23.857.14.334h-.06c.07.06.07.13.14.2l.4 1.06 2.6 6.19 3.13-9.86c0 .06 0 .06.07.06l-.06-.07-5.53-16.73 46.98-9.26"/>
  <path fill="#9ddff9" d="M403.536 337.625l2.4 6.264-46.98 9.26 5.53 16.72.066.06 29.455 71.84.066.06v.13l.067.06 3.732 9.86 57.976-14.53-2.532-44.65-64.573-135.08-72.704 11.86-11.67 53.31v.13L270.52 478.6l65.84-16.99 22.39-88.1-.4-1.067c-.07-.07-.07-.135-.14-.2-.07-.135-.07-.27-.07-.335l-7.87-23.86 53.24-10.46"/>
  <path fill="#fff" d="M721.543 473.437l1.398-2.398.27-1.4-90.03-17.06-.26 4.06 88.64 16.79"/>
  <path fill="#76747a" d="M690.888 527.083l30.655-53.646-88.632-16.793-.33 4.865c-.06.66-.26 1.26-.66 1.79L596 509.01l94.895 18.06"/>
  <path fill="#fff" d="M625.98 459.976l.067-.733H463.845l.067 1.8v2.198h159.536l2.532-3.26"/>
  <path fill="#76747a" d="M588.395 507.824l35.053-44.583H463.912v38.19l124.483 6.4"/>
  <path fill="#543e3c" d="M564.472 318.033h.067-.07"/>
  <path fill="#fff" d="M554.276 312.436v4.53l10.196 1.067 70.77 12.195c-.33-.533-.465-1.133-.398-1.732l.2-2.332-76.637-13.195-4.13-.54"/>
  <path fill="#543e3c" d="M564.54 318.033h-.068l-10.196-1.066 58.31 60.776 3.13-6.33-51.177-53.38"/>
  <path fill="#76747a" d="M470.376 371.945l27.79 17.26 47.513.667-82.84-72.24 7.53 54.313"/>
  <path fill="#9ddff9" d="M554.276 316.967v-4.53l4.13.532 76.637 13.19 3.333-50.32C580 262.32 521.623 253.72 463.18 250.12l-1.268 60.98.067.534 90.69 79.035-.07 5.93-92.5-1.27 3.73 63.9h162.2l4.26-63.04-17.73-18.46-58.31-60.78"/>
  <path fill="#fff" d="M461.98 311.636l.865 5.997 82.834 72.24 6.93 6.728.06-5.93-90.7-79.03"/>
  <path fill="#543e3c" d="M687.956 352.752v6.997l52.18 20.92L741.4 374l-53.44-21.26m-2.6 51.98v6.998l46.52 12.327 1.265-6.597-47.78-12.73"/>
  <path fill="#9ddff9" d="M635.91 392.404l.2.265c.333.33.533.66.733 1.13.2.46.266.93.2 1.4l-3.866 57.37 90.03 17.06 8.665-45.59-46.515-12.33v-7l47.78 12.73 6.998-36.79-52.18-20.93v-7L741.4 374l10.13-53.313c-35.52-16.596-71.03-30.92-106.55-42.918l-4.93 53.71-4.13 60.91"/>
  <path fill="#76747a" d="M635.243 330.295v-.067l-70.77-12.195h.066l51.17 53.38 19.52-41.118"/>
  <path fill="#543e3c" d="M644.973 277.783l-6.597-1.934-3.332 50.31-.2 2.33c-.067.6.067 1.2.4 1.73v.06h.065l3.86.93-20.53 43.25 17.26 17.92 4.13-60.91 4.93-53.71"/>
  <path fill="none" stroke="red" stroke-width=".067" stroke-miterlimit="10" d="M564.472 318.033h.067" stroke-linecap="square"/>
  <path fill="#8ebed3" d="M487.77 258.657c-6.065-.533-12.063-1-18.06-1.4l-1.067 51.38L480.44 318.9l33.785-57.577c-8.864-1-17.66-1.932-26.456-2.666m-58.38 99.56l-36.72 62.708 7.53 18.327c.06.133.06.265.13.4l1.66 4.33 6-1.466 33.99-57.976-12.6-26.323m111.95 13.795l13.26 11.528c1 .333 1.93.867 2.73 1.733.6.6 1.07 1.2 1.4 1.866 1.07 1.13 1.67 2.53 1.8 4.19.13 1.66-.27 3.13-1.27 4.4v.93c-.07 1.8-.74 3.4-2 4.73-1.34 1.26-2.94 1.93-4.8 1.86l-29.26-.4L494 452.56h56.046l47.447-80.9-34.785-36.25L541.34 372m90.03-90.896c-10.93-2.465-21.86-4.8-32.72-6.93l-20.72 35.386 50.847 8.797h.065v-.2l2.534-37.05M66.27 404.732c-6.863 5.597-13.727 11.395-20.59 17.327-.334 6.33-.534 12.59-.6 18.85l21.19-36.19m244.703-80.9c-.066.2-.066.33-.066.53l-17.194 78.9 80.035-136.41-52.18 8.53-10.595 48.44m-53.378 151.81l6.997-32.26c-2.465-26.86-3.865-53.11-4.265-78.64l-44.847 76.5 4.063 47.84 38.052-13.46M160.7 501.49c-.067-.066-.067-.133-.067-.2v-.133l-.066-.067c-.067-.2-.067-.333-.134-.466l.267.866m37.252-30.388l-18.925 32.254 21.057-7.4zM58.94 544.675c1.467 5.398 3.066 10.797 4.8 16.26l34.185-23.19-7.53-46.78-31.454 53.71m50.92-86.9l21.39-13.06c-.8-6.596-1.53-13.194-2.13-19.79l-19.26 32.852m482.81-5.197h27.19l3.47-52.313zm195.13-73.57l13.8-23.525c-12.19-10.862-24.72-20.858-37.45-29.988l-18.4 96.763c-.06.59-.13 1.26-.26 1.86-.06.065-.06.065-.06.13-.06.135-.06.268-.13.468l-7.53 39.65 26.93-45.914-1.74-43.317c-.07-1.733.4-3.265 1.53-4.53 1.13-1.334 2.53-2.13 4.2-2.33 1.67-.27 3.27.064 4.67 1.062L787.8 379m-22.658-58.64c0-.07 0-.2.063-.27l-.06.33v-.07m58.776 56.18l-11.26 19.19 6.8 4.59c1.54 1 2.47 2.4 2.8 4.2.34 1.8 0 3.53-1 5.066l-3.73 5.532c-1 1.53-2.4 2.462-4.2 2.8-1.79.33-3.53 0-5.06-1l-5.73-3.936-16.86 28.79c.47 29.32.67 44.114.6 44.314l6.53 79.234 28.46-8.53-11.86-75.37c-.07-.27-.07-.536-.07-.8L804 447.49c-.47-2.668-.67-5.2-.6-7.6.064-1.13.33-2.065.8-2.73.33-.534 1-1.067 1.93-1.534.8-.463 1.666-.663 2.53-.6.464 0 1.2.137 2.2.4 1.33.27 3.66 1.2 7.06 2.8l1.8 1c.4.135.8.334 1.2.667l14.46 7.73c3.595-17.592 5.13-35.718 4.595-54.31-5.33-5.798-10.66-11.396-16.06-16.794m-179.4-12.4l-1.8 26.45-2.462 56.58 77.637 14.73 6.265-33.06-41.18-11.27c-1.8-.47-3.134-1.47-4-3.07-.93-1.54-1.13-3.27-.665-5.07l.13-6.47c.465-1.8 1.464-3.14 3.064-4.07 1.53-.94 3.264-1.14 5.063-.67l41.384 10.93 4.6-24.32-47.11-18.93c-.86-.33-1.73-1.67-2.73-4-.99-2.27-1.26-3.8-.93-4.67l.33-6.19c.67-1.67 1.87-2.93 3.54-3.67.87-.34 2.13-.54 3.67-.6 1.54 0 2.74.2 3.6.53l43.51 17.46 7.6-40.25c-20.32-9.4-40.71-18.06-61.11-25.93l-38.38 65.51m-382.73-70c.07-2.13.2-4.27.4-6.4-19.46 7.6-38.65 16.26-57.64 25.99l2.33 54.51c.07 1.8-.46 3.4-1.73 4.8-1.27 1.33-2.86 2.07-4.66 2.13l-6.68 1.87c-1.86.06-3.46-.47-4.73-1.74-1.4-1.26-2.13-2.795-2.2-4.595l-1.73-41.45-38.32 65.44c.94 17.33 2.54 34.85 4.87 52.51 1.14 9.2 2.54 18.46 4.07 27.72l106-180.77"/>
  <path fill="#fdf155" d="M424.928 635.24l15.46 51.38 11.33-17.127 26.055 33.586.867-27.39 36.12 20.45-.868-20.66 53.645 22.39-33.787-42.58 28.855-10.6-29.388-18.8 22.524-17.66-36.65-.4 8.6-18.4-58.51 2.46-44.25 43.32"/>
  <path fill="none" stroke="#f90" stroke-width="3.998" stroke-miterlimit="10" d="M424.928 635.24l44.248-43.316 58.51-2.467-8.595 18.394 36.65.4-22.52 17.66 29.39 18.8-28.85 10.6 33.79 42.59-53.65-22.4.87 20.66-36.12-20.45-.86 27.39-26.05-33.58-11.33 17.13z" stroke-linecap="round"/>
  <path fill="#9ddff9" d="M360.753 520.22c-4.332 9.66-3.932 19.06 1.266 28.188 5.19 9.13 13.66 15.393 25.32 18.725 11.79 3.266 23.39 2.732 34.78-1.732 11.39-4.46 19.26-11.46 23.65-21.05 4.4-9.66 4-19.06-1.2-28.19-5.2-9.13-13.67-15.39-25.39-18.72-11.73-3.33-23.26-2.8-34.66 1.67-11.4 4.47-19.33 11.46-23.79 21.13"/>
  <path fill="none" stroke="#000" stroke-width="6.664" stroke-miterlimit="10" d="M362.02 548.408c5.197 9.13 13.66 15.393 25.323 18.725 11.796 3.266 23.39 2.732 34.785-1.732 11.396-4.46 19.26-11.46 23.657-21.05 4.4-9.66 4-19.06-1.198-28.19-5.2-9.13-13.662-15.39-25.39-18.72-11.73-3.33-23.258-2.8-34.653 1.67-11.396 4.47-19.325 11.46-23.79 21.13-4.333 9.66-3.933 19.06 1.265 28.19z" stroke-linecap="round" stroke-linejoin="round"/>
  <path fill="#89a9b9" d="M374.948 525.416c-3.2 7.132-2.865 14.063.933 20.793 3.8 6.73 10.07 11.39 18.66 13.86 8.73 2.4 17.26 1.93 25.66-1.34 8.4-3.27 14.2-8.4 17.46-15.53 3.27-7.13 3-14.06-.86-20.79-3.8-6.73-10.06-11.33-18.72-13.8-8.66-2.47-17.19-2.07-25.59 1.2-8.39 3.26-14.26 8.46-17.52 15.59"/>
  <path fill="#9ddff9" d="M401.87 511.09c.866 1.53 2.2 2.53 4.13 3.13 1.935.535 3.867.4 5.733-.332 1.932-.733 3.2-1.865 3.93-3.465.734-1.532.668-3.066-.2-4.598-.864-1.533-2.264-2.533-4.196-3.132-1.934-.533-3.8-.466-5.664.267-1.934.732-3.2 1.932-3.932 3.53-.73 1.534-.66 3.067.2 4.6"/>
  <path fill="#f26d7d" d="M510.56 553.872c-20.725-5.664-40.517-6.864-59.376-3.6 13.928 10.264 27.72 22.125 41.383 35.588l17.993-31.988"/>
  <path fill="#fff" d="M467.977 627.043c12.462-10.13 20.66-23.858 24.59-41.183-13.662-13.463-27.455-25.324-41.383-35.587-44.25-32.586-89.764-49.18-136.612-49.713 4.93 49.247 38.05 96.76 99.36 142.61 22.057.6 40.05-4.73 54.045-16.127"/>
  <path fill="#c25e69" d="M490.435 585.527l13.46-23.924c-15.46-4.2-30.254-5.064-44.315-2.666 10.33 7.663 20.66 16.527 30.855 26.59"/>
  <path d="M310.773 497.095l.534 3.798c4.864 50.047 38.384 98.362 100.626 144.943l.866.665h1.06c22.92.67 41.65-4.93 56.24-16.86 12.86-10.46 21.39-24.65 25.59-42.51l19.92-35.38-4.2-1.06c-20.73-5.66-40.52-6.93-59.45-3.93-44.52-32.52-90.3-49.04-137.35-49.51zM457.78 552.74c15.26-1.867 31.19-.8 47.78 3.265L491.1 581.66c-11.06-10.728-22.19-20.324-33.32-28.92zm-8.53.265l1.134.8s4.932 3.8 14.86 11.33c10.863 8.596 18.927 15.326 24.057 20.325-3.79 16.393-11.59 29.388-23.39 38.984-13.26 10.663-30.18 15.793-50.84 15.46-58.24-43.783-90.49-89.097-96.69-135.945 44.78 1.4 88.43 17.79 130.88 49.04"/>
  <path fill="#cbc4c4" d="M457.915 625.11c9.796-7.93 16.193-18.726 19.325-32.386-10.73-10.596-21.592-19.927-32.52-27.99-34.853-25.655-70.64-38.65-107.49-39.05 3.93 38.717 29.987 76.103 78.167 112.155 17.327.46 31.522-3.74 42.518-12.73"/>
  <path fill="#f26d7d" d="M466.577 619.18c20.592-.2 35.52-2.865 44.65-7.997-19.26-19.26-47.248-32.322-83.967-39.318 3.332 10.463 16.46 26.19 39.317 47.314"/>
  <path fill="#c25e69" d="M463.112 618.847c17.393 0 30.12-2 38.12-6-15.13-15.326-38.053-25.922-68.64-31.72 2.265 8.33 12.46 20.86 30.52 37.72"/>
  <path d="M422.595 567.6l2.533 5.597c5.13 11.53 17.86 26.79 38.117 45.65l3.4 3.665c21.324-.2 36.718-3 46.247-8.397l4-2.132-3.267-3.134c-19.658-19.73-48.18-33.12-85.698-40.25zm43.982 48.248h-.6c-18.125-16.86-29.72-30.12-34.718-39.784 31.58 6.596 56.31 17.992 74.16 34.185-8.93 3.53-21.86 5.39-38.85 5.59"/>
  <path fill="#f26d7d" d="M387.876 647.835c7.53-5.798 14.46-15.528 20.724-29.322l-39.383-32.653c-2.666 21.457 3.53 42.116 18.66 61.975"/>
  <path fill="#c25e69" d="M409.333 616.78l-32.12-24.923c-1.665 18.326 3.732 35.386 16.26 51.18 5.866-5.398 11.13-14.128 15.86-26.257"/>
  <path d="M366.817 581.26l-.8 4c-2.865 22.457 3.532 43.983 19.192 64.64l2.06 2.733 2.66-2.133c7.93-6.064 15.33-16.593 22.19-31.587zm38.32 36.92c-5.133 10.996-10.73 19.26-16.66 24.79-11.997-16.794-17.46-34.187-16.396-52.113l33.06 27.323"/>
  <path fill="#c6996d" d="M643.44 578.463c-5.597 1.865-10.463 5.53-14.595 11.06-4.13 5.533-6.264 11.197-6.464 17.06-.2 5.866 1.6 10.197 5.4 13.062 3.8 2.867 8.47 3.4 14 1.534 5.6-1.87 10.47-5.54 14.6-11.07 4.13-5.53 6.27-11.2 6.47-17.06.2-5.87-1.53-10.27-5.33-13.13-3.8-2.87-8.53-3.33-14.06-1.47"/>
  <path fill="#8f6c5e" d="M654.903 585.727c-2.8-2.067-6.264-2.467-10.33-1.067-4.132 1.4-7.73 4.065-10.796 8.13-2.998 4.065-4.598 8.263-4.732 12.595-.2 4.33 1.134 7.53 4 9.596 2.73 2.14 6.196 2.54 10.262 1.14 4.132-1.4 7.73-4.06 10.796-8.13 2.998-4.06 4.597-8.26 4.73-12.59.2-4.33-1.132-7.53-3.93-9.66"/>
  <path fill="#c6996d" d="M285.45 646.036c7.53-.6 15.327 1.2 23.523 5.397 8.198 4.2 14.262 9.53 18.194 15.994 3.932 6.464 4.597 12.195 1.998 17.193-2.532 4.998-7.596 7.797-15.126 8.397-7.54.532-15.4-1.266-23.6-5.465-8.2-4.198-14.2-9.463-18.13-15.927-3.93-6.464-4.67-12.195-2.13-17.193 2.59-4.998 7.66-7.797 15.26-8.396"/>
  <path fill="#8f6c5e" d="M287.85 651.367c-6.065.466-10.197 2.665-12.262 6.664-2.067 4.07-1.467 8.67 1.732 13.87 3.132 5.2 7.997 9.47 14.528 12.8 6.597 3.4 12.86 4.8 18.925 4.33 6.064-.46 10.13-2.73 12.195-6.73 2.067-4.06 1.467-8.59-1.665-13.73-3.132-5.26-7.998-9.53-14.595-12.86-6.597-3.4-12.86-4.8-18.86-4.33"/>
  <path fill="#fdf155" d="M610.853 723.07l-9.796-15.792-16.993 3.065 9.796 15.793 16.993-3.065"/>
  <path fill="none" stroke="#f90" stroke-width="3.998" stroke-miterlimit="10" d="M601.057 707.278l-16.993 3.065 9.796 15.793 16.993-3.065z" stroke-linecap="square"/>
  <path fill="#fdf155" d="M647.172 736.666l8.597-7.597-6-10.07-8.6 7.59 5.99 10.06"/>
  <path fill="none" stroke="#f90" stroke-width="3.998" stroke-miterlimit="10" d="M655.77 729.07l-6-10.064-8.595 7.597 5.997 10.063z" stroke-linecap="square"/>
  <path fill="#fdf155" d="M692.02 730.268l7.064-3.332-5.464-4.198-7.064 3.332 5.465 4.198"/>
  <path fill="none" stroke="#f90" stroke-width="3.998" stroke-miterlimit="10" d="M699.084 726.936l-5.464-4.198-7.064 3.332 5.465 4.198z" stroke-linecap="square"/>
  <path fill="#c6996d" d="M603.59 614.248c-4.2.533-8.263 2.532-12.062 5.93-3.865 3.4-6.33 7.198-7.464 11.397-1.133 4.198-.533 7.53 1.732 10.062 2.267 2.6 5.532 3.532 9.864 2.932 4.197-.6 8.263-2.6 12.128-6 3.797-3.4 6.264-7.2 7.397-11.33 1.132-4.2.532-7.53-1.733-10.13-2.265-2.53-5.53-3.47-9.863-2.87"/>
  <path fill="#8f6c5e" d="M611.587 619.445c-1.934-2.132-4.6-2.93-8.13-2.465-3.533.533-6.932 2.2-10.13 5-3.132 2.864-5.198 5.996-6.13 9.395-.934 3.532-.468 6.33 1.464 8.464 1.87 2.06 4.6 2.86 8.14 2.33 3.53-.47 6.87-2.07 10.07-4.93 3.2-2.8 5.27-5.94 6.13-9.47.94-3.4.47-6.2-1.4-8.33"/>
</svg>
